<?xml version="1.0" encoding="utf-8"?>
<!-- Generator: Adobe Illustrator 17.0.0, SVG Export Plug-In . SVG Version: 6.00 Build 0)  -->
<!DOCTYPE svg PUBLIC "-//W3C//DTD SVG 1.1//EN" "http://www.w3.org/Graphics/SVG/1.1/DTD/svg11.dtd">
<svg version="1.1" id="Warstwa_1" xmlns="http://www.w3.org/2000/svg" xmlns:xlink="http://www.w3.org/1999/xlink" x="0px" y="0px"
	  width="1016.16px" height="840.922px" viewBox="0 0 864.16 747.922"  enable-background="new 0 0 1264.16 747.922"
	 xml:space="preserve">
<g>
	<path fill="#ECF7F4" d="M571.504,69.052c0,18.555,14.991,33.545,33.545,33.545c18.555,0,33.545-14.991,33.545-33.545
		s-14.991-33.545-33.545-33.545C586.494,35.507,571.504,50.602,571.504,69.052"/>
</g>
<g>
	<defs>
		<rect id="SVGID_1_" width="1264.16" height="747.922"/>
	</defs>
	<clipPath id="SVGID_2_">
		<use xlink:href="#SVGID_1_"  overflow="visible"/>
	</clipPath>
	<g clip-path="url(#SVGID_2_)">
		<defs>
			<rect id="SVGID_3_" width="1264.16" height="747.922"/>
		</defs>
		<clipPath id="SVGID_4_">
			<use xlink:href="#SVGID_3_"  overflow="visible"/>
		</clipPath>
		<g opacity="0.9" clip-path="url(#SVGID_4_)">
			<g>
				<defs>
					<rect id="SVGID_5_" x="485.837" y="7.365" width="778.323" height="740.557"/>
				</defs>
				<clipPath id="SVGID_6_">
					<use xlink:href="#SVGID_5_"  overflow="visible"/>
				</clipPath>
				<g clip-path="url(#SVGID_6_)">
					<defs>
						<path id="SVGID_7_" d="M883.651,7.88C764.666,18.874,698.448,94.762,679.874,150.295
							c-18.574,55.533-47.757,76.548-115.459,126.509c-120.906,89.223-121.903,323.159,137.321,376.118
							c0,0,63.41,23.576,125.621,64.035c94.472,61.438,359.558,44.303,420.18-169.938
							c60.622-214.241-59.801-153.825-117.338-360.672C1103.771,91.34,972.754-0.352,883.651,7.88"/>
					</defs>
					<clipPath id="SVGID_8_">
						<use xlink:href="#SVGID_7_"  overflow="visible"/>
					</clipPath>
					
						<linearGradient id="SVGID_9_" gradientUnits="userSpaceOnUse" x1="2.728484e-012" y1="747.927" x2="1" y2="747.927" gradientTransform="matrix(996.4028 709.9161 -709.9161 996.4028 531361.75 -745188.8125)">
						<stop  offset="0" style="stop-color:#74CFC1"/>
						<stop  offset="0.0048" style="stop-color:#74CFC1"/>
						<stop  offset="0.203" style="stop-color:#51BFA9"/>
						<stop  offset="0.3873" style="stop-color:#38B297"/>
						<stop  offset="0.4976" style="stop-color:#2EAE90"/>
						<stop  offset="0.6958" style="stop-color:#31A893"/>
						<stop  offset="0.9592" style="stop-color:#3A979A"/>
						<stop  offset="1" style="stop-color:#3C949B"/>
					</linearGradient>
					<polygon clip-path="url(#SVGID_8_)" fill="url(#SVGID_9_)" points="74.489,516.186 1016.691,1187.485 1676.182,261.857 
						733.98,-409.442 					"/>
				</g>
			</g>
		</g>
	</g>
	<rect x="429.978" y="166.887" clip-path="url(#SVGID_2_)" fill="#C0E3DA" width="65.337" height="82.379"/>
	<g clip-path="url(#SVGID_2_)">
		<defs>
			<rect id="SVGID_10_" width="1264.16" height="747.922"/>
		</defs>
		<clipPath id="SVGID_11_">
			<use xlink:href="#SVGID_10_"  overflow="visible"/>
		</clipPath>
		<g opacity="0.9" clip-path="url(#SVGID_11_)">
			<g>
				<defs>
					<rect id="SVGID_12_" x="434.671" y="175.899" width="55.95" height="68.238"/>
				</defs>
				<clipPath id="SVGID_13_">
					<use xlink:href="#SVGID_12_"  overflow="visible"/>
				</clipPath>
				<rect x="434.671" y="175.899" clip-path="url(#SVGID_13_)" fill="#FFFFFF" width="55.95" height="68.238"/>
			</g>
		</g>
	</g>
	<rect y="540.941" clip-path="url(#SVGID_2_)" fill="#1A9980" width="1094.836" height="7.199"/>
	<polygon clip-path="url(#SVGID_2_)" fill="#28A58D" points="995.568,360.296 680.761,360.296 680.761,360.742 680.76,360.742 
		680.76,544.54 688.488,544.54 688.488,368.024 987.84,368.024 987.84,544.54 995.568,544.54 995.568,368.024 	"/>
	<rect x="165.833" y="48.373" clip-path="url(#SVGID_2_)" fill="#ECF7F4" width="70" height="29.051"/>
	<g clip-path="url(#SVGID_2_)">
		<defs>
			<rect id="SVGID_14_" width="1264.16" height="747.922"/>
		</defs>
		<clipPath id="SVGID_15_">
			<use xlink:href="#SVGID_14_"  overflow="visible"/>
		</clipPath>
		<path clip-path="url(#SVGID_15_)" fill="#ECF7F4" d="M395.366,531.076c0,0.595,0.53,1.077,1.184,1.077h45.447
			c0.654,0,1.183-0.482,1.183-1.077v-17.644c0-0.595-0.529-1.078-1.183-1.078H396.55c-0.654,0-1.184,0.483-1.184,1.078V531.076z"/>
		<path clip-path="url(#SVGID_15_)" fill="#ECF7F4" d="M417.024,505.995c0,0.592,0.527,1.072,1.177,1.072h45.21
			c0.651,0,1.177-0.48,1.177-1.072v-17.552c0-0.592-0.526-1.072-1.177-1.072h-45.21c-0.65,0-1.177,0.48-1.177,1.072V505.995z"/>
		
			<path clip-path="url(#SVGID_15_)" fill="none" stroke="#1F3E51" stroke-width="2" stroke-miterlimit="10" stroke-dasharray="12,12" d="
			M590.993,445.466c1.591,1.771,102.997,35.688,104.507-20.473c1.721-63.995-143.503-91.803-157.284-96.824
			c-32.812-11.952-57.718-63.391,71.196-85.195c183.726-31.075,52.084-168.558-6.435-168.558"/>
		
			<path clip-path="url(#SVGID_15_)" fill="none" stroke="#1F3E51" stroke-width="2" stroke-miterlimit="10" stroke-dasharray="12,12" d="
			M590.993,445.466c0,0-116.134-56.646-126.774-2.426c-9.725,49.55,48.111,79.016,80.021,83.799"/>
		<path clip-path="url(#SVGID_15_)" fill="#FFFFFF" d="M574.231,67.122c0,17.659,14.315,31.975,31.975,31.975
			c17.659,0,31.975-14.316,31.975-31.975c0-17.659-14.316-31.975-31.975-31.975C588.546,35.147,574.231,49.463,574.231,67.122"/>
		<polygon clip-path="url(#SVGID_15_)" fill="#E25A40" points="600.013,73.761 612.778,73.761 612.778,60.191 600.013,60.191 
			600.013,62.525 595.176,62.525 595.176,55.353 617.615,55.353 617.615,78.598 595.176,78.598 595.176,71.426 600.013,71.426 		"/>
		<polygon clip-path="url(#SVGID_15_)" fill="#E25A40" points="593.205,72.312 586.072,66.976 593.205,61.64 593.205,62.525 
			593.205,64.389 595.176,64.389 600.013,64.389 602.977,64.389 602.977,66.253 602.977,67.698 602.977,69.562 600.013,69.562 
			595.176,69.562 593.205,69.562 593.205,71.426 		"/>
		<path clip-path="url(#SVGID_15_)" fill="#FFFFFF" d="M459.537,171.545c0,0.839,0.68,1.519,1.519,1.519s1.519-0.68,1.519-1.519
			c0-0.839-0.68-1.519-1.519-1.519S459.537,170.706,459.537,171.545"/>
		<g opacity="0.2" clip-path="url(#SVGID_15_)">
			<g>
				<g>
					<defs>
						<polygon id="SVGID_16_" points="461.056,170.027 619.458,129.992 598.135,262.738 461.056,173.064 						"/>
					</defs>
					<clipPath id="SVGID_17_">
						<use xlink:href="#SVGID_16_"  overflow="visible"/>
					</clipPath>
					
						<linearGradient id="SVGID_18_" gradientUnits="userSpaceOnUse" x1="-4.623875e-006" y1="747.922" x2="1" y2="747.922" gradientTransform="matrix(-158.4015 0 0 -158.4015 619.4573 118668.3203)">
						<stop  offset="0" style="stop-color:#FFFFFF"/>
						<stop  offset="0.1746" style="stop-color:#EEF9F7"/>
						<stop  offset="0.3206" style="stop-color:#E5F6F3"/>
						<stop  offset="0.4928" style="stop-color:#C1E9E3"/>
						<stop  offset="0.7171" style="stop-color:#97DBD1"/>
						<stop  offset="0.894" style="stop-color:#7DD2C5"/>
						<stop  offset="1" style="stop-color:#74CFC1"/>
					</linearGradient>
					<rect x="461.056" y="129.992" clip-path="url(#SVGID_17_)" fill="url(#SVGID_18_)" width="158.402" height="132.746"/>
				</g>
			</g>
		</g>
		<rect x="377.167" y="102.948" clip-path="url(#SVGID_15_)" fill="#E7F7F2" width="6" height="431.894"/>
		<rect x="196.908" y="102.948" clip-path="url(#SVGID_15_)" fill="#E7F7F2" width="6" height="431.894"/>
		<rect x="202.908" y="103.04" clip-path="url(#SVGID_15_)" fill="#E7F7F2" width="177.259" height="6"/>
		<rect x="14.649" y="534.841" clip-path="url(#SVGID_15_)" fill="#E7F7F2" width="368.518" height="6"/>
		<rect x="202.908" y="109.04" clip-path="url(#SVGID_15_)" fill="#F7FCFA" width="174.259" height="425.801"/>
		<rect x="14.649" y="102.948" clip-path="url(#SVGID_15_)" fill="#E7F7F2" width="6" height="431.894"/>
		<rect x="20.649" y="103.04" clip-path="url(#SVGID_15_)" fill="#E7F7F2" width="177.259" height="6"/>
		<rect x="20.649" y="109.04" clip-path="url(#SVGID_15_)" fill="#F7FCFA" width="176.259" height="425.801"/>
		
			<line clip-path="url(#SVGID_15_)" fill="none" stroke="#C0E3DA" stroke-miterlimit="10" x1="265.957" y1="174.192" x2="231.833" y2="209.752"/>
		
			<line clip-path="url(#SVGID_15_)" fill="none" stroke="#C0E3DA" stroke-miterlimit="10" x1="285.476" y1="167.846" x2="251.352" y2="203.406"/>
		
			<line clip-path="url(#SVGID_15_)" fill="none" stroke="#C0E3DA" stroke-miterlimit="10" x1="265.957" y1="159.672" x2="240.427" y2="186.277"/>
		
			<line clip-path="url(#SVGID_15_)" fill="none" stroke="#C0E3DA" stroke-miterlimit="10" x1="334.072" y1="451.812" x2="299.948" y2="487.372"/>
		
			<line clip-path="url(#SVGID_15_)" fill="none" stroke="#C0E3DA" stroke-miterlimit="10" x1="353.59" y1="445.466" x2="319.466" y2="481.026"/>
		
			<line clip-path="url(#SVGID_15_)" fill="none" stroke="#C0E3DA" stroke-miterlimit="10" x1="334.072" y1="437.292" x2="308.542" y2="463.897"/>
		<g opacity="0.9" clip-path="url(#SVGID_15_)">
			<g>
				<g>
					<path fill="#A2CCC0" d="M186.577,58.76v2.626h3.587v1.55h-3.587v2.726h4.018v1.622h-6.041v-10.13h6.041v1.607H186.577z"/>
					<path fill="#A2CCC0" d="M198.759,67.283l-2.281-3.458l-2.023,3.458h-2.31l3.186-5.18l-3.271-4.95h2.396l2.239,3.386
						l1.995-3.386h2.31l-3.171,5.094l3.329,5.037H198.759z"/>
					<path fill="#A2CCC0" d="M204.972,57.153v10.13h-2.023v-10.13H204.972z"/>
					<path fill="#A2CCC0" d="M214.415,57.153v1.607h-2.798v8.523h-2.023V58.76h-2.784v-1.607H214.415z"/>
				</g>
			</g>
		</g>
		<path clip-path="url(#SVGID_15_)" fill="#28A58D" d="M916.628,530.049v-8.674v-3.68v-2.024h-55.565v-49.678h21.453
			c14.719,0,22.696-3.309,25.778-5.557c18.214-13.289,12.261-38.783,12.261-38.783l-8.969-100.81
			c-1.931-18.767-19.042-17.94-19.042-17.94h-36.467h-1.619h-36.467c0,0-17.112-0.827-19.043,17.94l-8.969,100.81
			c0,0-5.953,25.494,12.262,38.783c3.081,2.248,11.058,5.557,25.777,5.557h21.453v49.678H793.17v2.024v3.68v8.674
			c-2.044,0.809-3.495,2.793-3.495,5.125c0,3.049,2.471,5.52,5.519,5.52c3.049,0,5.52-2.471,5.52-5.52
			c0-2.332-1.451-4.316-3.496-5.125v-8.674h56.025v8.674c-2.044,0.809-3.495,2.793-3.495,5.125c0,3.049,2.471,5.52,5.519,5.52
			s5.52-2.471,5.52-5.52c0-2.332-1.451-4.316-3.496-5.125v-8.674h55.289v8.674c-2.045,0.809-3.496,2.793-3.496,5.125
			c0,3.049,2.472,5.52,5.52,5.52c3.048,0,5.52-2.471,5.52-5.52C920.124,532.842,918.672,530.858,916.628,530.049"/>
		<g opacity="0.1" clip-path="url(#SVGID_15_)">
			<g>
				<defs>
					<rect id="SVGID_19_" x="213.833" y="313.54" width="43.334" height="5.354"/>
				</defs>
				<clipPath id="SVGID_20_">
					<use xlink:href="#SVGID_19_"  overflow="visible"/>
				</clipPath>
				<rect x="213.834" y="313.54" clip-path="url(#SVGID_20_)" fill="#1A9980" width="43.333" height="5.354"/>
			</g>
		</g>
		<g opacity="0.1" clip-path="url(#SVGID_15_)">
			<g>
				<defs>
					<rect id="SVGID_21_" x="137.147" y="313.54" width="43.334" height="5.354"/>
				</defs>
				<clipPath id="SVGID_22_">
					<use xlink:href="#SVGID_21_"  overflow="visible"/>
				</clipPath>
				<rect x="137.147" y="313.54" clip-path="url(#SVGID_22_)" fill="#1A9980" width="43.333" height="5.354"/>
			</g>
		</g>
		
			<line clip-path="url(#SVGID_15_)" fill="none" stroke="#81C7B9" stroke-linecap="round" stroke-linejoin="round" stroke-miterlimit="10" x1="456.66" y1="171.525" x2="452.407" y2="171.525"/>
		
			<line clip-path="url(#SVGID_15_)" fill="none" stroke="#81C7B9" stroke-linecap="round" stroke-linejoin="round" stroke-miterlimit="10" x1="467.236" y1="164.536" x2="464.56" y2="167.66"/>
		
			<line clip-path="url(#SVGID_15_)" fill="none" stroke="#81C7B9" stroke-linecap="round" stroke-linejoin="round" stroke-miterlimit="10" x1="456.66" y1="167.338" x2="454.854" y2="165.773"/>
		
			<line clip-path="url(#SVGID_15_)" fill="none" stroke="#81C7B9" stroke-linecap="round" stroke-linejoin="round" stroke-miterlimit="10" x1="460.81" y1="167.338" x2="460.167" y2="161.734"/>
	</g>
	<g clip-path="url(#SVGID_2_)">
		<defs>
			<rect id="SVGID_23_" width="1264.16" height="747.922"/>
		</defs>
		<clipPath id="SVGID_24_">
			<use xlink:href="#SVGID_23_"  overflow="visible"/>
		</clipPath>
		<path clip-path="url(#SVGID_24_)" fill="#3D3F3E" d="M465.766,209.669c0.003,4.053,0.003,13.468-0.001,17.521
			c0,0.123,0.045,0.132,0.145,0.132c3.059-0.002,6.117-0.002,9.176-0.002v-9.341c-0.055-0.001-0.11-0.003-0.165-0.003
			c-1.972,0-3.943-0.001-5.914,0.003c-0.114,0-0.139-0.031-0.138-0.141c0.004-0.935,0.001-7.232,0.005-8.167
			c0-0.104-0.025-0.135-0.133-0.135c-0.947,0.004-1.895,0.003-2.842,0C465.793,209.536,465.766,209.565,465.766,209.669
			 M467.512,225.434c0.004-1.861,0.004-3.722,0-5.582c0-0.108,0.022-0.144,0.139-0.144c1.852,0.004,3.704,0.004,5.556,0
			c0.118,0,0.137,0.04,0.136,0.145c-0.004,0.931-0.002,1.861-0.002,2.791c0,0.927-0.002,1.853,0.003,2.778
			c0.001,0.119-0.025,0.157-0.151,0.157c-1.844-0.005-3.688-0.005-5.531-0.001C467.551,225.578,467.512,225.555,467.512,225.434"/>
		<path clip-path="url(#SVGID_24_)" fill="#3D3F3E" d="M456.57,211.758c0.993,0.004,1.987,0.001,2.98,0
			c0.001-0.053,0.004-0.108,0.004-0.162c0-1.965,0-3.93,0.001-5.895c0-0.054-0.016-0.111,0.022-0.16
			c0.363,0.003,0.726,0.006,1.089,0.007c0.617,0,1.234-0.001,1.851,0c0.074,0,0.114-0.009,0.114-0.1
			c-0.003-0.989-0.003-1.978-0.003-2.967c0-0.012-0.004-0.024-0.006-0.037h-3.045h-9.367c0,3.054,0,6.107-0.003,9.161
			c-0.001,0.125,0.026,0.16,0.157,0.159c0.951-0.006,1.903-0.002,2.855-0.006c0.106,0,0.132,0.03,0.132,0.134
			c-0.004,0.952-0.001,1.904-0.005,2.856c-0.001,0.113,0.027,0.15,0.146,0.149c0.926-0.005,1.853-0.005,2.779-0.001
			c0.114,0.001,0.151-0.026,0.151-0.146c-0.005-0.948,0-1.895-0.007-2.842C456.415,211.781,456.452,211.757,456.57,211.758
			 M457.684,210.027c-1.865-0.003-3.73-0.003-5.595,0c-0.102,0-0.137-0.022-0.137-0.132c0.003-1.856,0.004-3.713,0-5.569
			c0-0.114,0.032-0.14,0.142-0.14c0.93,0.005,1.861,0.003,2.791,0.003s1.861,0.001,2.791-0.003c0.106,0,0.145,0.019,0.145,0.137
			c-0.004,1.856-0.004,3.714,0,5.57C457.821,210.001,457.788,210.027,457.684,210.027"/>
		<polygon clip-path="url(#SVGID_24_)" fill="#3D3F3E" points="459.55,211.758 459.551,211.758 459.55,211.76 		"/>
		<path clip-path="url(#SVGID_24_)" fill="#3D3F3E" d="M450.335,224.187c0.347,0.005,0.694,0.001,1.041,0.002
			c0.655,0.001,1.311,0.003,1.966,0.005c0.994,0.001,1.988,0.002,2.982,0.003c0.008,0,0.015-0.005,0.023-0.025h-2.993
			c-0.002-0.05-0.006-0.101-0.006-0.151c0-0.927-0.002-1.854,0.003-2.779c0-0.116-0.034-0.139-0.142-0.139
			c-0.961,0.004-1.921,0.001-2.881,0.005c-0.094,0-0.121-0.023-0.121-0.119c0.003-1.989,0.003-3.977,0-5.965
			c0-0.101,0.029-0.126,0.127-0.125c0.956,0.003,1.912,0.004,2.868-0.001c0.112,0,0.142,0.028,0.141,0.141
			c-0.005,0.935-0.001,1.87-0.005,2.804c0,0.107,0.03,0.133,0.134,0.132c0.926-0.003,1.853,0,2.779,0.001
			c0.051,0,0.102,0.004,0.152,0.006v3.065h0.023v-3.07c1.044,0,2.088-0.001,3.131-0.001c0.978,0,1.955,0.003,2.932-0.003
			c0.124-0.001,0.142,0.042,0.142,0.151c-0.004,0.943-0.004,1.886,0,2.83c0.001,0.119-0.025,0.155-0.151,0.155
			c-1.967-0.005-3.934-0.002-5.901-0.007c-0.132,0-0.158,0.036-0.158,0.161c0.004,1.976,0.002,3.951,0.005,5.927
			c0,0.105-0.029,0.133-0.133,0.133c-0.909-0.005-1.819-0.003-2.729-0.003c-1.078,0-2.157-0.001-3.235,0.002
			c-0.092,0.001-0.122-0.018-0.122-0.116c0.004-0.965,0.004-1.93,0-2.894C450.207,224.209,450.237,224.185,450.335,224.187"/>
		<polygon clip-path="url(#SVGID_24_)" fill="#3D3F3E" points="456.426,217.975 456.426,217.977 456.425,217.977 		"/>
		<path clip-path="url(#SVGID_24_)" fill="#3D3F3E" d="M462.783,211.739c0.347,0.006,0.694,0.002,1.041,0.002
			c0.655,0.002,1.311,0.004,1.966,0.005c0.994,0.001,1.988,0.003,2.982,0.003c0.008,0,0.015-0.005,0.023-0.025h-2.993
			c-0.002-0.049-0.006-0.1-0.006-0.151c0-0.927-0.002-1.853,0.003-2.779c0.001-0.116-0.033-0.139-0.142-0.139
			c-0.961,0.005-1.921,0.002-2.881,0.005c-0.094,0-0.121-0.023-0.12-0.119c0.002-1.989,0.002-3.976-0.001-5.964
			c0-0.102,0.029-0.126,0.128-0.126c0.955,0.004,1.912,0.004,2.867,0c0.112-0.001,0.142,0.028,0.141,0.141
			c-0.004,0.934,0,1.869-0.005,2.804c0,0.107,0.03,0.132,0.134,0.132c0.926-0.003,1.853-0.001,2.78,0
			c0.05,0.001,0.101,0.004,0.151,0.006v3.065h-2.025v-3.07h2.078c-0.013-0.023-0.016-0.061-0.016-0.133
			c-0.001-0.989-0.001-1.978-0.001-2.967c0.98,0,1.96,0.002,2.941-0.003c0.114,0,0.139,0.033,0.138,0.142
			c-0.004,0.947-0.004,1.895,0.001,2.842c0,0.058-0.008,0.095-0.028,0.119h0.067c0.977-0.001,1.954,0.002,2.931-0.004
			c0.124-0.001,0.142,0.042,0.142,0.151c-0.004,0.943-0.004,1.886,0,2.83c0.001,0.12-0.025,0.155-0.15,0.155
			c-1.968-0.004-6.06-0.096-6.06,0.029c0.004,1.976,0.002,4.076,0.005,6.052c0,0.106-0.029,0.133-0.133,0.133
			c-0.909-0.004-1.819-0.002-2.729-0.002c-1.078,0-2.157-0.002-3.235,0.002c-0.092,0-0.122-0.019-0.122-0.117
			c0.004-0.965,0.004-1.929,0-2.894C462.655,211.762,462.686,211.737,462.783,211.739"/>
		<polygon clip-path="url(#SVGID_24_)" fill="#3D3F3E" points="468.874,205.528 468.874,205.529 468.873,205.529 		"/>
		<path clip-path="url(#SVGID_24_)" fill="#3D3F3E" d="M465.284,214.897c-0.922-0.005-4.648-0.003-5.57-0.003
			c-0.16,0-0.16,0-0.16-0.167c-0.001-0.989-0.002-1.977-0.002-2.967c0.98,0,4.765,0.003,5.745-0.002
			c0.114-0.001,0.139,0.032,0.139,0.141c-0.005,0.947-0.005,1.894,0,2.842C465.436,214.861,465.409,214.898,465.284,214.897"/>
		<polygon clip-path="url(#SVGID_24_)" fill="#3D3F3E" points="459.551,211.758 459.551,211.76 459.55,211.76 		"/>
		<path clip-path="url(#SVGID_24_)" fill="#3D3F3E" d="M474.933,211.801c-0.921-0.006-1.843-0.003-2.765-0.003
			c-0.161,0-0.161,0-0.161-0.167c0-0.989-0.001-1.977-0.002-2.967c0.981,0,1.961,0.003,2.942-0.002
			c0.114-0.001,0.139,0.032,0.138,0.141c-0.004,0.947-0.005,1.894,0,2.842C475.086,211.765,475.058,211.802,474.933,211.801"/>
		<polygon clip-path="url(#SVGID_24_)" fill="#3D3F3E" points="472.005,208.662 472.005,208.664 472.004,208.664 		"/>
		<path clip-path="url(#SVGID_24_)" fill="#3D3F3E" d="M466.697,214.894c-0.16,0-0.16,0-0.161-0.167
			c0-0.989-0.001-1.978-0.002-2.967c0.981,0,4.313,0.003,5.294-0.002c0.114-0.001,0.139,0.032,0.139,0.141
			c-0.005,0.947-0.005,1.894,0,2.842c0,0.12-0.027,0.157-0.153,0.156C470.892,214.892,467.619,214.894,466.697,214.894"/>
		<polygon clip-path="url(#SVGID_24_)" fill="#3D3F3E" points="468.886,211.758 468.886,211.76 468.885,211.76 		"/>
		<polygon clip-path="url(#SVGID_24_)" fill="#3D3F3E" points="468.886,202.427 468.886,202.429 468.884,202.429 		"/>
		<path clip-path="url(#SVGID_24_)" fill="#3D3F3E" d="M456.537,214.9c0.968,0.001,1.936,0.002,2.904-0.001
			c0.087,0,0.115,0.023,0.114,0.113c-0.004,0.456-0.001,0.913-0.002,1.369c-0.001,0.525-0.003,1.048-0.005,1.573h-3.118
			c-0.002-0.013-0.005-0.026-0.005-0.038c-0.001-0.972,0-1.945-0.003-2.916C456.421,214.906,456.464,214.9,456.537,214.9"/>
		<path clip-path="url(#SVGID_24_)" fill="#3D3F3E" d="M468.982,221.104c0.482,0.004,0.964,0.002,1.446,0.002
			s0.964,0.001,1.445-0.002c0.081-0.001,0.11,0.019,0.11,0.104c-0.002,0.957-0.002,1.912,0,2.867c0,0.09-0.027,0.116-0.115,0.115
			c-0.96-0.002-1.919-0.002-2.879,0c-0.092,0.001-0.123-0.023-0.122-0.12c0.003-0.951,0.003-1.903,0-2.854
			C468.866,221.125,468.895,221.103,468.982,221.104"/>
		<path clip-path="url(#SVGID_24_)" fill="#3D3F3E" d="M453.467,205.545c0.942,0.003,1.885,0.004,2.827-0.001
			c0.111,0,0.133,0.037,0.131,0.139c-0.004,0.473-0.001,0.946-0.001,1.42c0,0.482-0.002,0.963,0.001,1.445
			c0.001,0.09-0.025,0.114-0.114,0.113c-0.95-0.003-1.902-0.003-2.852,0.001c-0.098,0-0.12-0.032-0.12-0.123
			c0.003-0.956,0.003-1.911-0.001-2.866C453.338,205.573,453.366,205.544,453.467,205.545"/>
		<polyline clip-path="url(#SVGID_24_)" fill="none" stroke="#C0E3DA" stroke-miterlimit="10" points="478.748,202.444 
			478.748,199.364 475.681,199.364 		"/>
		<polyline clip-path="url(#SVGID_24_)" fill="none" stroke="#C0E3DA" stroke-miterlimit="10" points="446.127,226.815 
			446.127,229.895 449.195,229.895 		"/>
		<polyline clip-path="url(#SVGID_24_)" fill="none" stroke="#C0E3DA" stroke-miterlimit="10" points="446.127,202.332 
			446.127,199.252 449.195,199.252 		"/>
		<polyline clip-path="url(#SVGID_24_)" fill="none" stroke="#C0E3DA" stroke-miterlimit="10" points="478.261,226.815 
			478.261,229.895 475.194,229.895 		"/>
		<rect x="471.967" y="207.206" clip-path="url(#SVGID_24_)" fill="#3D3F3E" width="3.109" height="4.692"/>
		<rect x="468.868" y="206.842" clip-path="url(#SVGID_24_)" fill="#3D3F3E" width="4.677" height="1.848"/>
		<rect x="456.426" y="215.25" clip-path="url(#SVGID_24_)" fill="#3D3F3E" width="3.124" height="4.95"/>
		<rect x="452.177" y="217.977" clip-path="url(#SVGID_24_)" fill="#3D3F3E" width="7.716" height="3.127"/>
		<rect x="460.366" y="202.453" clip-path="url(#SVGID_24_)" fill="#3D3F3E" width="3.657" height="3.092"/>
		<rect x="459.516" y="223.319" clip-path="url(#SVGID_24_)" fill="#3D3F3E" width="3.08" height="4.003"/>
		
			<rect x="486.615" y="92.625" transform="matrix(-0.9846 -0.1748 0.1748 -0.9846 994.566 321.5377)" clip-path="url(#SVGID_24_)" fill="#E7F7F2" width="49.65" height="48.706"/>
		<g opacity="0.35" clip-path="url(#SVGID_24_)">
			<g>
				<defs>
					<rect id="SVGID_25_" x="488.528" y="93.68" width="46.026" height="41.563"/>
				</defs>
				<clipPath id="SVGID_26_">
					<use xlink:href="#SVGID_25_"  overflow="visible"/>
				</clipPath>
				<g clip-path="url(#SVGID_26_)">
					<defs>
						
							<rect id="SVGID_27_" x="491.276" y="96.952" transform="matrix(-0.9846 -0.1747 0.1747 -0.9846 995.2125 316.5447)" width="40.531" height="35.02"/>
					</defs>
					<clipPath id="SVGID_28_">
						<use xlink:href="#SVGID_27_"  overflow="visible"/>
					</clipPath>
					
						<linearGradient id="SVGID_29_" gradientUnits="userSpaceOnUse" x1="-9.094947e-012" y1="747.922" x2="1" y2="747.922" gradientTransform="matrix(-39.9063 -7.0824 7.0824 -39.9063 -4765.5645 29964.7656)">
						<stop  offset="0" style="stop-color:#74CFC1"/>
						<stop  offset="0.0048" style="stop-color:#74CFC1"/>
						<stop  offset="0.203" style="stop-color:#51BFA9"/>
						<stop  offset="0.3873" style="stop-color:#38B297"/>
						<stop  offset="0.4976" style="stop-color:#2EAE90"/>
						<stop  offset="0.6958" style="stop-color:#31A893"/>
						<stop  offset="0.9592" style="stop-color:#3A979A"/>
						<stop  offset="1" style="stop-color:#3C949B"/>
					</linearGradient>
					<polygon clip-path="url(#SVGID_28_)" fill="url(#SVGID_29_)" points="541.705,94.949 489.933,85.761 481.377,133.974 
						533.149,143.162 					"/>
				</g>
			</g>
		</g>
		<path clip-path="url(#SVGID_24_)" fill="#32A58F" d="M401.846,131.043c0.079-0.114,0.181-0.188,0.309-0.217
			c0.118-0.028,0.239-0.014,0.362,0.044c0.124,0.058,0.229,0.167,0.315,0.329l0.029,0.122c0.167-0.23,0.374-0.421,0.621-0.571
			c0.248-0.148,0.499-0.254,0.754-0.315c0.354-0.083,0.702-0.083,1.043,0c0.34,0.083,0.655,0.229,0.945,0.439
			c0.289,0.211,0.538,0.475,0.748,0.794c0.21,0.32,0.362,0.681,0.457,1.081c0.102,0.436,0.126,0.852,0.071,1.248
			c-0.055,0.398-0.187,0.76-0.398,1.087c-0.21,0.329-0.5,0.615-0.869,0.86c-0.37,0.245-0.822,0.432-1.358,0.558
			c-0.128,0.03-0.253,0.056-0.378,0.075c-0.125,0.021-0.253,0.035-0.385,0.048l0.678,2.876c0.04,0.211,0.016,0.382-0.073,0.514
			c-0.089,0.13-0.201,0.212-0.338,0.245c-0.127,0.029-0.256,0.01-0.388-0.06c-0.131-0.069-0.234-0.202-0.309-0.395l-1.957-8.301
			C401.727,131.311,401.767,131.157,401.846,131.043 M403.342,132.748c-0.012,0.031-0.028,0.062-0.051,0.092
			c-0.022,0.028-0.039,0.054-0.053,0.077l0.607,2.576c0.134-0.003,0.265-0.01,0.391-0.02c0.127-0.011,0.254-0.032,0.381-0.061
			c0.309-0.073,0.586-0.182,0.83-0.325c0.245-0.145,0.446-0.317,0.605-0.517c0.159-0.201,0.267-0.427,0.322-0.681
			c0.055-0.252,0.049-0.525-0.02-0.816c-0.051-0.218-0.137-0.429-0.258-0.637c-0.121-0.207-0.264-0.385-0.429-0.539
			c-0.166-0.152-0.344-0.266-0.534-0.341c-0.19-0.076-0.386-0.089-0.586-0.041c-0.154,0.036-0.293,0.097-0.417,0.183
			c-0.123,0.087-0.234,0.188-0.331,0.302c-0.099,0.114-0.185,0.235-0.26,0.363C403.464,132.491,403.398,132.619,403.342,132.748"/>
		<path clip-path="url(#SVGID_24_)" fill="#32A58F" d="M410.515,135.281c-0.085,0.13-0.193,0.213-0.323,0.248
			c-0.131,0.035-0.264,0.02-0.4-0.05c-0.137-0.068-0.242-0.199-0.316-0.392l-1.787-7.579c-0.005-0.181,0.034-0.331,0.118-0.446
			c0.083-0.116,0.18-0.188,0.293-0.22s0.233-0.019,0.361,0.038c0.129,0.055,0.241,0.163,0.336,0.323l0.756,3.204
			c0.103-0.169,0.205-0.309,0.304-0.418c0.151-0.17,0.298-0.312,0.438-0.428c0.141-0.114,0.311-0.219,0.509-0.313
			c0.153-0.084,0.316-0.132,0.491-0.145c0.175-0.012,0.349-0.015,0.524-0.009c0.292,0.018,0.557,0.094,0.795,0.23
			c0.238,0.136,0.452,0.31,0.641,0.519c0.188,0.209,0.346,0.443,0.474,0.701c0.128,0.258,0.226,0.512,0.296,0.764
			c0.112,0.435,0.215,0.864,0.31,1.286c0.095,0.424,0.199,0.854,0.311,1.288c0.038,0.203,0.015,0.368-0.07,0.498
			c-0.084,0.13-0.191,0.214-0.323,0.249c-0.13,0.036-0.264,0.019-0.4-0.05c-0.136-0.069-0.241-0.199-0.316-0.393
			c-0.102-0.435-0.204-0.865-0.303-1.288c-0.1-0.423-0.206-0.851-0.318-1.285c-0.086-0.325-0.217-0.605-0.393-0.843
			c-0.175-0.236-0.426-0.413-0.75-0.528c-0.252-0.007-0.465,0.043-0.641,0.151c-0.176,0.109-0.328,0.248-0.456,0.417
			s-0.24,0.357-0.335,0.562c-0.096,0.205-0.188,0.403-0.277,0.596c-0.011,0.032-0.028,0.063-0.049,0.092
			c-0.023,0.03-0.041,0.055-0.054,0.077l0.623,2.645C410.622,134.984,410.599,135.15,410.515,135.281"/>
		<path clip-path="url(#SVGID_24_)" fill="#32A58F" d="M415.158,130.624c0.032-0.315,0.087-0.627,0.167-0.939
			c0.08-0.311,0.194-0.604,0.34-0.879c0.146-0.274,0.33-0.524,0.55-0.749c0.221-0.224,0.481-0.41,0.782-0.558
			c0.499-0.243,0.97-0.31,1.413-0.204c0.442,0.107,0.825,0.319,1.15,0.636c0.323,0.317,0.581,0.704,0.771,1.163
			c0.189,0.459,0.277,0.921,0.261,1.385c-0.009,0.568-0.132,1.125-0.369,1.67c-0.236,0.545-0.593,0.983-1.071,1.316
			c-0.354,0.247-0.715,0.393-1.084,0.437c-0.369,0.043-0.718,0.004-1.049-0.119c-0.332-0.123-0.634-0.317-0.907-0.578
			c-0.273-0.262-0.491-0.58-0.656-0.954c-0.104-0.234-0.177-0.471-0.219-0.71c-0.042-0.24-0.068-0.484-0.078-0.731L415.158,130.624z
			 M416.295,130.687c0.009,0.199,0.025,0.38,0.049,0.541c0.024,0.163,0.073,0.342,0.148,0.535c0.085,0.238,0.214,0.441,0.387,0.606
			c0.174,0.166,0.363,0.279,0.57,0.34c0.206,0.063,0.42,0.064,0.642,0.007c0.222-0.057,0.43-0.18,0.624-0.37
			c0.258-0.253,0.441-0.545,0.549-0.878c0.109-0.332,0.169-0.677,0.18-1.036c0.009-0.289-0.044-0.584-0.158-0.883
			c-0.113-0.299-0.271-0.549-0.472-0.752c-0.201-0.202-0.436-0.326-0.707-0.373c-0.27-0.046-0.557,0.037-0.861,0.253
			c-0.326,0.24-0.558,0.54-0.695,0.899C416.415,129.933,416.33,130.304,416.295,130.687"/>
		<path clip-path="url(#SVGID_24_)" fill="#32A58F" d="M420.922,127.509c-0.122-0.087-0.197-0.193-0.228-0.321
			c-0.029-0.127-0.006-0.264,0.069-0.412c0.076-0.148,0.218-0.246,0.427-0.295l0.763-0.18l-0.508-2.153
			c0.003-0.193,0.043-0.347,0.123-0.461c0.078-0.115,0.181-0.187,0.308-0.217c0.118-0.027,0.239-0.013,0.363,0.044
			c0.123,0.057,0.228,0.167,0.315,0.329l0.517,2.194l1.309-0.308c0.184,0.005,0.328,0.05,0.435,0.134
			c0.106,0.085,0.173,0.187,0.201,0.306c0.031,0.127,0.011,0.251-0.056,0.372c-0.067,0.122-0.186,0.227-0.357,0.316l-1.268,0.298
			c0.156,0.703,0.326,1.422,0.509,2.162c0.184,0.738,0.359,1.457,0.524,2.157c0.049,0.209,0.025,0.38-0.073,0.513
			c-0.099,0.133-0.211,0.215-0.338,0.245c-0.128,0.03-0.257,0.01-0.389-0.059c-0.131-0.069-0.234-0.201-0.309-0.394
			c-0.167-0.71-0.34-1.437-0.521-2.18c-0.18-0.744-0.354-1.471-0.521-2.18l-0.804,0.19
			C421.207,127.628,421.043,127.596,420.922,127.509"/>
		<path clip-path="url(#SVGID_24_)" fill="#32A58F" d="M425.819,128.109c0.031-0.314,0.087-0.627,0.167-0.938
			c0.08-0.311,0.193-0.604,0.339-0.88c0.147-0.273,0.33-0.523,0.551-0.749c0.22-0.224,0.481-0.41,0.782-0.558
			c0.499-0.242,0.97-0.309,1.412-0.203c0.443,0.107,0.826,0.319,1.151,0.635c0.323,0.318,0.581,0.704,0.77,1.163
			c0.19,0.46,0.277,0.922,0.262,1.385c-0.01,0.568-0.133,1.125-0.369,1.671c-0.236,0.544-0.593,0.983-1.071,1.316
			c-0.354,0.247-0.715,0.393-1.084,0.436c-0.369,0.044-0.719,0.005-1.05-0.119c-0.331-0.123-0.633-0.316-0.906-0.577
			c-0.273-0.263-0.492-0.581-0.657-0.954c-0.103-0.235-0.176-0.472-0.218-0.711c-0.042-0.24-0.068-0.483-0.078-0.73L425.819,128.109
			z M426.956,128.172c0.009,0.199,0.025,0.38,0.049,0.542c0.024,0.163,0.073,0.341,0.148,0.534c0.084,0.238,0.214,0.442,0.387,0.607
			c0.173,0.165,0.363,0.278,0.57,0.339c0.206,0.063,0.42,0.065,0.641,0.008c0.222-0.057,0.431-0.18,0.625-0.371
			c0.258-0.252,0.44-0.545,0.549-0.878c0.109-0.331,0.169-0.677,0.18-1.035c0.009-0.289-0.044-0.584-0.158-0.884
			c-0.113-0.299-0.271-0.549-0.472-0.751c-0.201-0.203-0.436-0.326-0.707-0.373c-0.27-0.047-0.557,0.037-0.861,0.253
			c-0.327,0.24-0.559,0.54-0.695,0.899C427.076,127.419,426.99,127.79,426.956,128.172"/>
		<path clip-path="url(#SVGID_24_)" fill="#32A58F" d="M436.749,123.776c-0.122-0.086-0.197-0.192-0.227-0.32
			c-0.03-0.127-0.007-0.264,0.069-0.412c0.075-0.148,0.217-0.246,0.427-0.295l0.763-0.18l-0.508-2.153
			c0.002-0.194,0.043-0.347,0.122-0.461c0.078-0.115,0.181-0.187,0.309-0.217c0.117-0.027,0.238-0.013,0.362,0.044
			c0.124,0.056,0.228,0.167,0.315,0.328l0.517,2.195l1.309-0.308c0.184,0.005,0.329,0.05,0.435,0.134
			c0.107,0.085,0.174,0.187,0.202,0.306c0.03,0.127,0.011,0.251-0.056,0.372c-0.068,0.122-0.187,0.227-0.357,0.316l-1.268,0.298
			c0.155,0.703,0.325,1.422,0.509,2.162c0.183,0.738,0.358,1.457,0.523,2.157c0.049,0.209,0.025,0.38-0.073,0.513
			c-0.098,0.133-0.211,0.214-0.338,0.245c-0.127,0.03-0.257,0.01-0.388-0.059c-0.131-0.07-0.234-0.201-0.309-0.394
			c-0.168-0.71-0.341-1.437-0.521-2.181c-0.18-0.743-0.355-1.47-0.522-2.179l-0.804,0.19
			C437.033,123.896,436.869,123.863,436.749,123.776"/>
		<path clip-path="url(#SVGID_24_)" fill="#32A58F" d="M447.462,125.911c0.002,0.01-0.002,0.016-0.011,0.018
			c0.085,0.114,0.126,0.228,0.125,0.345c-0.002,0.115-0.033,0.216-0.094,0.302c-0.062,0.086-0.152,0.153-0.269,0.2
			c-0.119,0.048-0.26,0.051-0.422,0.013c-0.101-0.061-0.2-0.133-0.295-0.211s-0.181-0.161-0.259-0.248
			c-0.146,0.197-0.308,0.387-0.486,0.568c-0.178,0.18-0.37,0.3-0.576,0.36c-0.36,0.103-0.718,0.192-1.074,0.267
			c-0.357,0.074-0.721,0.035-1.093-0.117c-0.309-0.129-0.564-0.307-0.767-0.539c-0.203-0.229-0.36-0.488-0.47-0.773
			c-0.111-0.286-0.18-0.589-0.208-0.908c-0.027-0.32-0.019-0.634,0.023-0.941c0.015-0.139,0.046-0.274,0.09-0.41
			c0.045-0.136,0.089-0.275,0.132-0.42c0.056-0.205,0.131-0.402,0.22-0.592c0.09-0.188,0.203-0.361,0.338-0.518
			c0.099-0.11,0.196-0.219,0.29-0.327c0.094-0.109,0.192-0.214,0.293-0.314c0.069-0.073,0.181-0.16,0.335-0.259
			c0.154-0.099,0.324-0.191,0.51-0.278c0.185-0.088,0.376-0.153,0.571-0.2c0.196-0.046,0.368-0.058,0.517-0.035
			c0.123-0.049,0.256-0.046,0.397,0.006c0.143,0.053,0.267,0.164,0.374,0.33c0.146,0.619,0.287,1.242,0.426,1.871
			c0.139,0.63,0.327,1.242,0.563,1.838c0.029,0.081,0.086,0.169,0.172,0.269c0.086,0.101,0.175,0.196,0.269,0.289
			c0.094,0.094,0.179,0.179,0.255,0.257C447.414,125.832,447.455,125.885,447.462,125.911 M445.508,125.379
			c0.017-0.014,0.028-0.025,0.035-0.036c0.007-0.012,0.018-0.024,0.034-0.037c-0.246-0.518-0.437-1.071-0.57-1.656
			c-0.134-0.588-0.254-1.129-0.36-1.622c-0.082,0.02-0.171,0.05-0.266,0.092c-0.097,0.042-0.188,0.09-0.276,0.144
			c-0.088,0.054-0.168,0.104-0.238,0.15c-0.071,0.045-0.123,0.081-0.155,0.109c-0.243,0.19-0.435,0.411-0.578,0.661
			s-0.246,0.513-0.309,0.792c-0.064,0.279-0.095,0.565-0.093,0.857c0.002,0.292,0.036,0.579,0.102,0.861
			c0.035,0.068,0.075,0.135,0.12,0.202c0.044,0.066,0.084,0.133,0.119,0.202c0.057,0.034,0.116,0.073,0.179,0.116
			c0.063,0.043,0.127,0.081,0.192,0.113c0.09,0.017,0.18,0.03,0.268,0.037c0.088,0.008,0.176,0.016,0.264,0.024
			c0.155-0.036,0.306-0.067,0.453-0.092c0.148-0.025,0.289-0.078,0.424-0.157c0.115-0.123,0.227-0.245,0.338-0.368
			C445.301,125.65,445.407,125.519,445.508,125.379"/>
		<path clip-path="url(#SVGID_24_)" fill="#32A58F" d="M449.814,125.94c-0.084,0.131-0.192,0.213-0.323,0.249
			c-0.131,0.035-0.264,0.019-0.4-0.05c-0.136-0.068-0.241-0.199-0.316-0.392l-1.832-7.771c-0.005-0.181,0.035-0.33,0.118-0.445
			c0.083-0.115,0.18-0.189,0.293-0.221c0.113-0.03,0.233-0.018,0.361,0.038c0.129,0.056,0.241,0.164,0.336,0.323l0.942,3.995
			c0.204-0.193,0.382-0.383,0.534-0.573c0.152-0.188,0.298-0.391,0.44-0.607c0.141-0.215,0.28-0.447,0.418-0.696
			c0.138-0.247,0.287-0.52,0.448-0.818c0.124-0.163,0.263-0.258,0.415-0.284s0.284-0.005,0.396,0.065
			c0.112,0.069,0.191,0.178,0.235,0.326c0.045,0.147,0.021,0.313-0.069,0.498c-0.251,0.481-0.487,0.904-0.708,1.268
			c-0.222,0.364-0.468,0.702-0.739,1.016c0.586,0.408,1.139,0.794,1.661,1.155c0.522,0.361,1.075,0.746,1.661,1.155
			c0.157,0.136,0.241,0.281,0.254,0.437c0.013,0.155-0.018,0.287-0.093,0.396c-0.076,0.109-0.189,0.178-0.34,0.209
			c-0.15,0.031-0.317-0.009-0.496-0.12c-0.608-0.423-1.182-0.824-1.723-1.206c-0.541-0.381-1.114-0.777-1.72-1.191
			c-0.048,0.04-0.094,0.08-0.138,0.118c-0.043,0.04-0.089,0.08-0.137,0.12l0.591,2.508
			C449.921,125.644,449.898,125.81,449.814,125.94"/>
		<path clip-path="url(#SVGID_24_)" fill="#32A58F" d="M459.015,122.122c0.174-0.117,0.335-0.165,0.485-0.143
			c0.149,0.023,0.267,0.087,0.354,0.19c0.087,0.105,0.127,0.234,0.12,0.389c-0.006,0.155-0.084,0.303-0.233,0.444
			c-0.26,0.243-0.545,0.479-0.856,0.705c-0.311,0.226-0.637,0.409-0.979,0.548c-0.341,0.138-0.692,0.217-1.051,0.24
			s-0.724-0.038-1.093-0.18c-0.444-0.174-0.819-0.462-1.125-0.865s-0.521-0.846-0.645-1.331c-0.123-0.483-0.145-0.972-0.065-1.465
			c0.08-0.495,0.288-0.925,0.623-1.292c0.352-0.38,0.757-0.7,1.215-0.955c0.457-0.256,0.949-0.39,1.474-0.399
			c0.258-0.003,0.508,0.061,0.75,0.191c0.242,0.129,0.452,0.296,0.628,0.5c0.178,0.201,0.302,0.431,0.372,0.688
			c0.07,0.257,0.063,0.516-0.019,0.774c-0.094,0.291-0.266,0.56-0.515,0.805c-0.249,0.246-0.53,0.471-0.842,0.674
			c-0.312,0.202-0.629,0.386-0.95,0.548c-0.322,0.162-0.601,0.309-0.838,0.442c-0.103,0.053-0.206,0.082-0.31,0.087
			c0.204,0.26,0.463,0.45,0.775,0.573c0.312,0.123,0.665,0.124,1.058,0.003c0.314-0.094,0.614-0.259,0.899-0.493
			S458.788,122.339,459.015,122.122 M455.672,119.845c-0.295,0.252-0.488,0.555-0.578,0.907c-0.089,0.352-0.094,0.7-0.012,1.046
			c0.053-0.06,0.112-0.112,0.179-0.158c0.153-0.084,0.307-0.17,0.464-0.26c0.156-0.09,0.315-0.177,0.477-0.264
			c0.103-0.053,0.241-0.128,0.414-0.227c0.174-0.098,0.352-0.207,0.535-0.327c0.182-0.119,0.344-0.247,0.485-0.381
			c0.141-0.134,0.225-0.266,0.252-0.398c-0.053-0.304-0.174-0.492-0.362-0.561c-0.19-0.071-0.398-0.079-0.625-0.025
			c-0.228,0.053-0.455,0.147-0.682,0.282C455.992,119.615,455.809,119.737,455.672,119.845"/>
		<path clip-path="url(#SVGID_24_)" fill="#32A58F" d="M465.997,122.224c-0.089,0.132-0.202,0.213-0.338,0.245
			c-0.127,0.03-0.257,0.011-0.388-0.058c-0.131-0.071-0.234-0.202-0.309-0.396c-0.098-0.418-0.199-0.833-0.301-1.246
			c-0.102-0.412-0.202-0.827-0.301-1.245c-0.071-0.3-0.139-0.601-0.206-0.903c-0.066-0.299-0.157-0.594-0.273-0.884
			c-0.105-0.118-0.204-0.184-0.298-0.196c-0.094-0.01-0.2-0.003-0.317,0.025c-0.31,0.073-0.597,0.22-0.861,0.44
			c-0.264,0.221-0.452,0.484-0.563,0.787c-0.063,0.178-0.113,0.327-0.147,0.445c-0.034,0.119-0.037,0.28-0.008,0.484
			c0.109,0.464,0.219,0.928,0.328,1.391c0.109,0.464,0.223,0.926,0.341,1.387c0.041,0.212,0.016,0.383-0.072,0.514
			c-0.09,0.132-0.203,0.213-0.338,0.245c-0.128,0.03-0.257,0.01-0.388-0.059c-0.132-0.071-0.235-0.202-0.31-0.395
			c-0.103-0.437-0.202-0.858-0.298-1.268c-0.097-0.409-0.195-0.813-0.293-1.211c-0.099-0.399-0.198-0.805-0.295-1.219
			c-0.098-0.413-0.198-0.839-0.301-1.275c0.003-0.192,0.043-0.346,0.122-0.46c0.079-0.115,0.181-0.187,0.309-0.217
			c0.118-0.028,0.239-0.013,0.362,0.044c0.124,0.057,0.229,0.167,0.315,0.329l0.026,0.109c0.21-0.289,0.466-0.539,0.766-0.749
			c0.3-0.211,0.619-0.354,0.955-0.435c0.336-0.079,0.671-0.076,1.002,0.009c0.332,0.085,0.629,0.279,0.893,0.58
			c0.091,0.104,0.169,0.242,0.234,0.413c0.064,0.172,0.122,0.356,0.173,0.549c0.05,0.196,0.095,0.396,0.134,0.603
			c0.039,0.206,0.081,0.4,0.124,0.582l0.379,1.608l0.216,0.914C466.11,121.922,466.086,122.093,465.997,122.224"/>
		<path clip-path="url(#SVGID_24_)" fill="#32A58F" d="M467.543,121.062c-0.049-0.21-0.018-0.405,0.093-0.584
			c0.111-0.18,0.266-0.293,0.467-0.34c0.209-0.05,0.403-0.019,0.583,0.093c0.179,0.111,0.293,0.27,0.343,0.48
			c0.047,0.199,0.015,0.39-0.096,0.569c-0.111,0.179-0.271,0.294-0.48,0.343c-0.2,0.048-0.39,0.015-0.57-0.096
			C467.704,121.416,467.59,121.261,467.543,121.062 M466.125,113.553c0.083-0.116,0.181-0.188,0.293-0.221
			c0.113-0.03,0.233-0.018,0.362,0.037c0.128,0.057,0.24,0.164,0.335,0.325l1.109,4.703c0.038,0.201,0.015,0.368-0.069,0.498
			c-0.085,0.13-0.192,0.213-0.322,0.249c-0.132,0.035-0.265,0.018-0.401-0.05c-0.136-0.068-0.242-0.199-0.316-0.393l-1.109-4.704
			C466.002,113.817,466.042,113.668,466.125,113.553"/>
		<path clip-path="url(#SVGID_24_)" fill="#32A58F" d="M469.4,56.078c0.118-0.175,0.25-0.287,0.397-0.337
			c0.147-0.049,0.287-0.051,0.417-0.006c0.131,0.046,0.238,0.137,0.32,0.276c0.082,0.139,0.112,0.309,0.089,0.51
			c-0.372,1.014-0.753,2.03-1.141,3.047c-0.389,1.019-0.848,2.002-1.376,2.953c-0.172,0.182-0.354,0.273-0.546,0.271
			c-0.192-0.001-0.373-0.097-0.543-0.289c-0.262-0.615-0.501-1.235-0.72-1.857c-0.217-0.621-0.43-1.25-0.637-1.881
			c-0.037-0.088-0.072-0.178-0.103-0.272c-0.032-0.093-0.061-0.187-0.087-0.286c-0.159,0.333-0.313,0.657-0.461,0.975
			c-0.147,0.316-0.295,0.638-0.444,0.965c-0.148,0.327-0.303,0.663-0.462,1.006c-0.161,0.342-0.332,0.711-0.517,1.107
			c-0.207,0.221-0.425,0.309-0.658,0.263c-0.232-0.048-0.403-0.207-0.515-0.481c-0.209-0.6-0.388-1.202-0.538-1.804
			c-0.15-0.601-0.297-1.212-0.44-1.83c-0.103-0.412-0.193-0.821-0.269-1.227c-0.077-0.406-0.134-0.813-0.173-1.221
			c-0.018-0.236,0.031-0.423,0.146-0.56c0.115-0.136,0.249-0.218,0.4-0.24s0.3,0.017,0.449,0.116
			c0.149,0.101,0.249,0.264,0.299,0.491c0.073,0.721,0.186,1.445,0.339,2.169c0.153,0.725,0.33,1.447,0.532,2.165
			c0.16-0.343,0.311-0.665,0.452-0.966c0.142-0.3,0.283-0.602,0.425-0.904c0.14-0.3,0.294-0.623,0.459-0.965
			c0.166-0.342,0.347-0.726,0.544-1.153c0.094-0.143,0.205-0.243,0.331-0.3c0.127-0.056,0.25-0.072,0.372-0.049
			c0.121,0.024,0.232,0.084,0.333,0.181c0.101,0.097,0.173,0.233,0.216,0.406c0.075,0.346,0.169,0.686,0.282,1.019
			c0.113,0.332,0.224,0.663,0.331,0.99c0.116,0.371,0.235,0.739,0.357,1.104c0.122,0.366,0.246,0.728,0.373,1.089
			c0.345-0.726,0.655-1.466,0.931-2.219C468.84,57.582,469.118,56.83,469.4,56.078"/>
		<path clip-path="url(#SVGID_24_)" fill="#32A58F" d="M471.352,58.986c0.139-0.332,0.303-0.657,0.493-0.971
			c0.19-0.313,0.411-0.597,0.662-0.85c0.25-0.251,0.533-0.463,0.848-0.636c0.316-0.173,0.661-0.29,1.04-0.353
			c0.626-0.099,1.163-0.017,1.611,0.244c0.449,0.263,0.798,0.621,1.048,1.074c0.25,0.454,0.403,0.962,0.459,1.527
			s-0.001,1.098-0.171,1.6c-0.198,0.619-0.516,1.187-0.954,1.706c-0.438,0.516-0.973,0.879-1.606,1.085
			c-0.468,0.154-0.912,0.194-1.329,0.12c-0.418-0.075-0.787-0.234-1.109-0.477c-0.321-0.244-0.588-0.555-0.8-0.932
			s-0.346-0.796-0.404-1.258c-0.035-0.291-0.036-0.575-0.003-0.85c0.033-0.275,0.084-0.551,0.155-0.824L471.352,58.986z
			 M472.575,59.431c-0.056,0.221-0.098,0.423-0.125,0.608c-0.028,0.186-0.033,0.397-0.015,0.633c0.014,0.289,0.089,0.553,0.223,0.79
			c0.136,0.24,0.305,0.425,0.511,0.561c0.205,0.137,0.438,0.209,0.699,0.221c0.262,0.009,0.531-0.057,0.806-0.201
			c0.365-0.19,0.661-0.45,0.89-0.778c0.228-0.327,0.408-0.686,0.539-1.073c0.105-0.314,0.144-0.654,0.118-1.018
			c-0.025-0.364-0.115-0.691-0.268-0.977c-0.153-0.288-0.369-0.501-0.649-0.642c-0.28-0.14-0.623-0.143-1.026-0.007
			c-0.436,0.154-0.789,0.405-1.056,0.753C472.954,58.647,472.739,59.024,472.575,59.431"/>
		<path clip-path="url(#SVGID_24_)" fill="#32A58F" d="M479.278,57.824c-0.155-0.094-0.266-0.202-0.333-0.325
			c-0.067-0.122-0.097-0.24-0.09-0.359c0.01-0.159,0.077-0.295,0.202-0.412c0.124-0.115,0.288-0.166,0.491-0.154
			c0.148,0.01,0.332,0.075,0.548,0.194c0.217,0.121,0.386,0.248,0.505,0.385c0.347-0.258,0.702-0.465,1.065-0.624
			c0.362-0.159,0.724-0.228,1.087-0.206c0.106,0.007,0.258,0.043,0.458,0.108c0.198,0.066,0.393,0.159,0.583,0.278
			c0.191,0.118,0.355,0.267,0.494,0.447c0.138,0.18,0.2,0.38,0.187,0.604c-0.011,0.181-0.079,0.323-0.203,0.427
			c-0.124,0.105-0.271,0.153-0.441,0.142c-0.117-0.007-0.22-0.048-0.305-0.122c-0.086-0.075-0.172-0.155-0.258-0.24
			c-0.086-0.086-0.177-0.164-0.274-0.235c-0.097-0.069-0.21-0.108-0.338-0.116c-0.149-0.01-0.314,0.025-0.495,0.105
			s-0.363,0.178-0.547,0.295c-0.184,0.117-0.359,0.245-0.528,0.385c-0.169,0.139-0.316,0.264-0.44,0.373l-0.262,4.247
			c-0.026,0.244-0.109,0.423-0.249,0.537c-0.141,0.115-0.291,0.166-0.451,0.157c-0.149-0.009-0.284-0.073-0.405-0.193
			c-0.12-0.119-0.189-0.297-0.207-0.533l0.268-4.359c0.002-0.022,0-0.046-0.003-0.073c-0.004-0.027-0.005-0.05-0.003-0.072
			c0.001-0.021,0.005-0.046,0.012-0.072c0.007-0.026,0.011-0.049,0.013-0.071l0.028-0.462
			C479.345,57.855,479.309,57.837,479.278,57.824"/>
		<path clip-path="url(#SVGID_24_)" fill="#32A58F" d="M486.235,63.79c-0.135,0.114-0.28,0.169-0.435,0.165
			c-0.154-0.005-0.295-0.066-0.421-0.186c-0.126-0.121-0.198-0.298-0.216-0.534l0.561-9.101c0.055-0.199,0.147-0.35,0.276-0.448
			c0.129-0.099,0.26-0.147,0.394-0.145c0.133,0.004,0.261,0.057,0.383,0.161c0.122,0.103,0.208,0.258,0.259,0.464l-0.288,4.679
			c0.287-0.143,0.545-0.292,0.773-0.45c0.229-0.156,0.456-0.33,0.682-0.518c0.225-0.19,0.454-0.398,0.687-0.624
			c0.233-0.226,0.486-0.474,0.759-0.746c0.19-0.138,0.373-0.196,0.548-0.174c0.175,0.02,0.312,0.089,0.412,0.201
			c0.1,0.113,0.15,0.258,0.15,0.434c-0.001,0.176-0.081,0.35-0.241,0.522c-0.433,0.444-0.831,0.828-1.193,1.154
			c-0.362,0.324-0.743,0.614-1.143,0.866c0.506,0.64,0.984,1.245,1.435,1.812c0.451,0.568,0.93,1.17,1.435,1.811
			c0.127,0.2,0.171,0.386,0.134,0.561c-0.038,0.174-0.115,0.309-0.233,0.403c-0.119,0.094-0.265,0.132-0.441,0.117
			c-0.174-0.017-0.342-0.115-0.502-0.296c-0.526-0.662-1.021-1.291-1.487-1.887c-0.465-0.595-0.961-1.219-1.487-1.87
			c-0.066,0.027-0.129,0.056-0.19,0.084c-0.06,0.029-0.123,0.057-0.189,0.085l-0.181,2.938
			C486.451,63.501,486.37,63.675,486.235,63.79"/>
		<path clip-path="url(#SVGID_24_)" fill="#32A58F" d="M503.624,63.026c0.228-0.071,0.421-0.07,0.577,0.004
			c0.155,0.074,0.264,0.182,0.325,0.324c0.06,0.143,0.061,0.298,0.003,0.466c-0.059,0.167-0.192,0.302-0.402,0.408
			c-0.364,0.181-0.753,0.343-1.168,0.488s-0.832,0.238-1.251,0.277c-0.419,0.038-0.829,0.008-1.229-0.084
			c-0.401-0.095-0.779-0.281-1.136-0.559c-0.428-0.337-0.743-0.775-0.945-1.316c-0.201-0.542-0.29-1.097-0.265-1.668
			c0.024-0.571,0.161-1.112,0.412-1.625c0.251-0.514,0.62-0.916,1.109-1.207c0.509-0.299,1.057-0.514,1.642-0.644
			c0.585-0.129,1.166-0.112,1.744,0.051c0.283,0.083,0.535,0.234,0.757,0.457c0.221,0.221,0.396,0.473,0.523,0.753
			c0.127,0.279,0.186,0.572,0.178,0.876c-0.008,0.304-0.1,0.584-0.276,0.841c-0.2,0.287-0.476,0.523-0.83,0.71
			c-0.353,0.187-0.734,0.339-1.141,0.458c-0.408,0.119-0.815,0.214-1.22,0.286c-0.405,0.071-0.76,0.139-1.063,0.207
			c-0.13,0.024-0.252,0.021-0.368-0.007c0.139,0.35,0.358,0.645,0.659,0.882c0.3,0.238,0.686,0.355,1.156,0.352
			c0.374,0.002,0.756-0.08,1.145-0.242C502.949,63.352,503.304,63.188,503.624,63.026 M500.72,59.433
			c-0.406,0.178-0.717,0.444-0.931,0.801c-0.215,0.355-0.334,0.735-0.359,1.139c0.078-0.047,0.161-0.086,0.248-0.113
			c0.195-0.041,0.392-0.085,0.593-0.131c0.2-0.047,0.403-0.09,0.609-0.132c0.13-0.023,0.306-0.061,0.528-0.111
			c0.222-0.05,0.453-0.11,0.692-0.182c0.239-0.07,0.458-0.156,0.657-0.255c0.198-0.1,0.334-0.217,0.406-0.352
			c0.043-0.351-0.027-0.596-0.211-0.734c-0.183-0.14-0.409-0.218-0.674-0.234c-0.267-0.016-0.546,0.011-0.839,0.084
			S500.906,59.36,500.72,59.433"/>
		<path clip-path="url(#SVGID_24_)" fill="#32A58F" d="M511.225,65.442c-0.141,0.114-0.291,0.166-0.45,0.156
			c-0.15-0.009-0.284-0.072-0.405-0.192c-0.121-0.119-0.19-0.297-0.207-0.534c0.03-0.49,0.057-0.977,0.082-1.461
			c0.024-0.486,0.052-0.973,0.082-1.461c0.022-0.353,0.045-0.703,0.072-1.055c0.027-0.35,0.025-0.703-0.007-1.058
			c-0.075-0.165-0.162-0.269-0.261-0.313c-0.099-0.042-0.218-0.068-0.355-0.077c-0.363-0.023-0.724,0.043-1.087,0.197
			c-0.361,0.154-0.653,0.379-0.875,0.675c-0.128,0.174-0.231,0.32-0.307,0.437c-0.077,0.121-0.134,0.294-0.169,0.528
			c-0.033,0.543-0.067,1.086-0.1,1.629c-0.034,0.543-0.062,1.087-0.085,1.629c-0.026,0.245-0.109,0.424-0.249,0.539
			c-0.141,0.113-0.291,0.166-0.45,0.156c-0.15-0.01-0.285-0.074-0.405-0.194c-0.121-0.12-0.19-0.297-0.208-0.534
			c0.032-0.511,0.062-1.004,0.092-1.485c0.029-0.478,0.056-0.952,0.079-1.421c0.024-0.468,0.05-0.944,0.08-1.429
			c0.03-0.485,0.061-0.983,0.092-1.494c0.067-0.209,0.161-0.364,0.285-0.463s0.26-0.144,0.409-0.134
			c0.139,0.007,0.266,0.064,0.383,0.167c0.116,0.104,0.194,0.257,0.235,0.463l-0.007,0.128c0.325-0.247,0.686-0.436,1.085-0.566
			c0.397-0.131,0.794-0.184,1.187-0.159c0.394,0.024,0.758,0.138,1.093,0.34c0.335,0.202,0.596,0.511,0.785,0.928
			c0.065,0.144,0.105,0.32,0.119,0.53c0.014,0.209,0.016,0.428,0.008,0.657c-0.009,0.229-0.027,0.463-0.051,0.702
			c-0.026,0.238-0.045,0.465-0.058,0.678l-0.116,1.884l-0.066,1.07C511.449,65.149,511.366,65.328,511.225,65.442"/>
		<path clip-path="url(#SVGID_24_)" fill="#32A58F" d="M519.466,64.739c0.127,0.201,0.171,0.388,0.134,0.561
			c-0.038,0.175-0.115,0.309-0.233,0.402c-0.118,0.096-0.265,0.134-0.44,0.118s-0.343-0.115-0.503-0.295
			c-0.05-0.057-0.094-0.116-0.133-0.177s-0.068-0.118-0.085-0.174c-0.337,0.258-0.72,0.45-1.151,0.579
			c-0.429,0.128-0.86,0.179-1.291,0.152c-0.431-0.026-0.838-0.138-1.221-0.339c-0.384-0.2-0.697-0.494-0.939-0.883
			c-0.185-0.299-0.311-0.631-0.38-0.993c-0.069-0.363-0.092-0.728-0.069-1.094c0.023-0.367,0.09-0.727,0.203-1.077
			c0.112-0.352,0.247-0.677,0.405-0.978c0.144-0.268,0.343-0.508,0.597-0.717c0.253-0.208,0.517-0.374,0.792-0.496
			c0.253-0.123,0.534-0.22,0.843-0.292c0.309-0.071,0.602-0.104,0.88-0.097c0.256,0.015,0.51,0.036,0.765,0.062
			c0.255,0.026,0.502,0.085,0.743,0.175c0.037-0.768,0.068-1.415,0.095-1.943c0.028-0.527,0.047-0.88,0.058-1.062
			c0.055-0.199,0.147-0.349,0.276-0.448c0.128-0.098,0.26-0.147,0.393-0.144c0.134,0.003,0.261,0.057,0.384,0.16
			c0.121,0.104,0.208,0.259,0.259,0.464l-0.515,8.353c0.019,0.033,0.042,0.063,0.067,0.091
			C519.424,64.676,519.446,64.706,519.466,64.739 M518.132,63.503l0.014-0.224c0.024-0.393,0.051-0.827,0.08-1.3
			c0.029-0.474,0.052-0.925,0.067-1.351l-0.093-0.053c-0.03-0.023-0.058-0.047-0.083-0.07c-0.026-0.023-0.053-0.046-0.085-0.069
			c-0.313-0.116-0.646-0.179-0.998-0.191c-0.351-0.011-0.685,0.036-1.002,0.14c-0.317,0.102-0.601,0.264-0.855,0.484
			c-0.254,0.219-0.44,0.508-0.558,0.863c-0.106,0.325-0.155,0.61-0.149,0.857c0.006,0.246,0.02,0.535,0.043,0.868
			c0.037,0.087,0.072,0.176,0.103,0.263c0.033,0.088,0.067,0.175,0.104,0.262l0.3,0.339c0.126,0.051,0.244,0.111,0.358,0.183
			c0.423,0.068,0.815,0.071,1.177,0.008s0.717-0.229,1.064-0.495c0.012-0.021,0.038-0.049,0.078-0.084
			c0.039-0.034,0.082-0.072,0.127-0.113c0.045-0.04,0.087-0.077,0.127-0.111c0.039-0.035,0.065-0.058,0.077-0.067L518.132,63.503z"
			/>
		<path clip-path="url(#SVGID_24_)" fill="#32A58F" d="M526.68,64.447c0.229-0.072,0.421-0.07,0.577,0.004
			c0.155,0.074,0.264,0.182,0.325,0.324c0.06,0.142,0.061,0.298,0.003,0.465c-0.058,0.168-0.192,0.303-0.402,0.409
			c-0.364,0.181-0.753,0.343-1.168,0.488c-0.415,0.145-0.832,0.238-1.251,0.277c-0.419,0.038-0.829,0.008-1.229-0.084
			c-0.4-0.095-0.779-0.282-1.136-0.559c-0.428-0.337-0.743-0.775-0.945-1.317c-0.201-0.541-0.29-1.097-0.265-1.667
			c0.024-0.571,0.162-1.113,0.412-1.625c0.251-0.514,0.62-0.916,1.109-1.207c0.509-0.299,1.057-0.515,1.642-0.644
			c0.585-0.129,1.166-0.112,1.744,0.051c0.283,0.082,0.536,0.233,0.757,0.456c0.221,0.222,0.396,0.474,0.523,0.754
			c0.127,0.279,0.186,0.572,0.178,0.876c-0.008,0.303-0.1,0.584-0.276,0.84c-0.199,0.288-0.476,0.524-0.829,0.711
			c-0.354,0.186-0.734,0.338-1.142,0.458c-0.408,0.119-0.815,0.213-1.22,0.286c-0.405,0.07-0.76,0.139-1.063,0.207
			c-0.129,0.024-0.252,0.021-0.368-0.007c0.139,0.35,0.358,0.645,0.659,0.882c0.3,0.238,0.686,0.355,1.156,0.352
			c0.374,0.002,0.756-0.08,1.145-0.242C526.005,64.772,526.36,64.609,526.68,64.447 M523.776,60.854
			c-0.406,0.178-0.717,0.444-0.931,0.801c-0.215,0.355-0.334,0.734-0.359,1.139c0.078-0.048,0.161-0.086,0.248-0.113
			c0.195-0.042,0.393-0.085,0.593-0.132c0.2-0.046,0.403-0.089,0.609-0.131c0.13-0.024,0.306-0.061,0.528-0.111
			c0.222-0.051,0.453-0.11,0.692-0.182c0.24-0.07,0.458-0.156,0.657-0.255c0.198-0.101,0.334-0.217,0.406-0.352
			c0.043-0.351-0.027-0.596-0.211-0.734c-0.183-0.14-0.409-0.218-0.674-0.235c-0.267-0.015-0.546,0.012-0.839,0.084
			C524.202,60.707,523.962,60.781,523.776,60.854"/>
		<path clip-path="url(#SVGID_24_)" fill="#32A58F" d="M535.177,65.707c0.127,0.201,0.171,0.388,0.134,0.562
			c-0.037,0.175-0.115,0.308-0.233,0.402c-0.118,0.095-0.265,0.133-0.44,0.118c-0.175-0.017-0.343-0.116-0.503-0.296
			c-0.05-0.057-0.094-0.115-0.133-0.176c-0.039-0.062-0.067-0.119-0.085-0.174c-0.337,0.258-0.72,0.45-1.15,0.578
			c-0.43,0.128-0.861,0.18-1.292,0.152c-0.431-0.026-0.838-0.138-1.221-0.339c-0.383-0.2-0.696-0.494-0.939-0.883
			c-0.185-0.299-0.311-0.63-0.38-0.993c-0.069-0.363-0.092-0.727-0.069-1.094c0.023-0.367,0.09-0.727,0.203-1.077
			c0.112-0.351,0.247-0.677,0.405-0.978c0.144-0.268,0.344-0.508,0.597-0.716c0.253-0.209,0.517-0.375,0.792-0.497
			c0.253-0.122,0.534-0.22,0.843-0.291c0.309-0.072,0.602-0.104,0.88-0.098c0.256,0.015,0.51,0.036,0.766,0.062
			c0.254,0.026,0.501,0.085,0.742,0.175c0.037-0.768,0.068-1.415,0.095-1.943c0.028-0.526,0.047-0.88,0.058-1.062
			c0.055-0.199,0.147-0.349,0.276-0.447c0.129-0.099,0.26-0.148,0.393-0.144c0.134,0.002,0.261,0.056,0.384,0.159
			c0.121,0.105,0.208,0.26,0.259,0.465l-0.515,8.352c0.02,0.033,0.042,0.063,0.068,0.092
			C535.135,65.644,535.158,65.675,535.177,65.707 M533.843,64.471l0.014-0.224c0.024-0.393,0.051-0.826,0.08-1.3
			c0.03-0.474,0.052-0.924,0.068-1.351l-0.094-0.053c-0.03-0.023-0.058-0.046-0.083-0.07c-0.026-0.023-0.053-0.046-0.085-0.069
			c-0.313-0.115-0.645-0.179-0.998-0.19c-0.351-0.012-0.685,0.035-1.002,0.139c-0.317,0.103-0.601,0.264-0.855,0.484
			c-0.254,0.22-0.44,0.508-0.558,0.863c-0.106,0.325-0.155,0.61-0.149,0.857c0.006,0.246,0.02,0.535,0.043,0.868
			c0.037,0.087,0.072,0.176,0.103,0.263c0.033,0.088,0.068,0.175,0.105,0.262l0.299,0.339c0.126,0.051,0.244,0.112,0.358,0.183
			c0.423,0.069,0.816,0.072,1.177,0.008c0.362-0.063,0.717-0.229,1.065-0.495c0.012-0.021,0.037-0.048,0.077-0.084
			c0.039-0.034,0.082-0.072,0.127-0.113c0.045-0.04,0.087-0.077,0.127-0.111c0.04-0.035,0.065-0.058,0.077-0.067L533.843,64.471z"/>
		<path clip-path="url(#SVGID_24_)" fill="#32A58F" d="M537.09,66.147c0.015-0.246,0.113-0.448,0.294-0.608
			c0.18-0.16,0.388-0.232,0.622-0.217c0.245,0.014,0.448,0.112,0.607,0.292c0.16,0.182,0.232,0.394,0.217,0.64
			c-0.014,0.234-0.112,0.431-0.292,0.59c-0.181,0.16-0.394,0.232-0.639,0.218c-0.235-0.015-0.431-0.113-0.591-0.294
			C537.148,66.588,537.075,66.381,537.09,66.147 M538.017,57.468c0.129-0.099,0.26-0.146,0.394-0.145
			c0.133,0.004,0.261,0.057,0.383,0.161c0.121,0.103,0.208,0.258,0.259,0.465l-0.339,5.508c-0.025,0.234-0.105,0.408-0.24,0.523
			c-0.136,0.114-0.281,0.169-0.435,0.165c-0.155-0.005-0.295-0.067-0.422-0.187c-0.126-0.119-0.198-0.298-0.215-0.533l0.34-5.51
			C537.796,57.716,537.888,57.567,538.017,57.468"/>
	</g>
	<g clip-path="url(#SVGID_2_)">
		<defs>
			<rect id="SVGID_30_" width="1264.16" height="747.922"/>
		</defs>
		<clipPath id="SVGID_31_">
			<use xlink:href="#SVGID_30_"  overflow="visible"/>
		</clipPath>
		<path clip-path="url(#SVGID_31_)" fill="#28A58D" d="M818.75,122.04c0,0,0.5-6.75-5.25-6.75l-3.25-22.25h-4.75V27.79h-1.25H803
			h-1.25v65.25H797l-3.25,22.25c-5.75,0-5.25,6.75-5.25,6.75c-32,13.75-31.5,56.25-31.5,56.25h46h1.25h46
			C850.25,178.29,850.75,135.79,818.75,122.04"/>
		<path clip-path="url(#SVGID_31_)" fill="#E5B9B6" d="M645.402,515.905c0,0,4.171,7.501,4.171,9.168
			c0,1.666-10.479,9.348-10.479,9.348l5.396,1.86h4.333l4.084-2.083c0,0,4.166-3.417,4.583-4c0.417-0.584,3.75-5.125,3.75-5.125
			l-1.083-2.792l-0.417-4c0,0-2.588-2.772-4.446-7.224l-7.727-0.276L645.402,515.905z"/>
		<path clip-path="url(#SVGID_31_)" fill="#FDE7DE" d="M532.261,534.943c0,0,10.993-5.859,11.979-8.104
			c0.531-1.208,1.218-5.021,1.345-7.137c0.886-14.728,10.247-1.691,10.247-1.691l-0.738,3.807l1.667,1.834l-7.5,11.602
			l-10.313,2.273l-3.395,0.312L532.261,534.943z"/>
		<polygon clip-path="url(#SVGID_31_)" fill="#212B54" points="496.012,215.781 487.837,215.781 487.837,228.028 496.558,227.854 
			500.741,228.874 504.222,226.032 505.404,223.254 498.379,216.473 		"/>
		<path clip-path="url(#SVGID_31_)" fill="#E5B9B6" d="M496.012,215.781c0,0,4.666,5.115,5.815,9.521c0,0,0.84,1.64,0.288,2.455
			c-0.579,0.852-2.615,0.863-5.557,0.097l-2.013,0.102c0,0-0.382,0.796,0.96,1.849c1.341,1.054,3.448,2.314,3.448,2.314l9.706,0.263
			l16.421,9.017l11.284-2.245c0,0-24.594-13.549-25.664-14.415c0,0-6.868-9.89-7.744-10.291c0,0-0.881-1.125-1.797-0.492
			c0,0-1.017-0.686-1.709-0.167c0,0-1.187-1.309-2.416,0.459c0,0-1.657-1.575-3.11,1.533H496.012z"/>
		<path clip-path="url(#SVGID_31_)" fill="#E5B9B6" d="M627.677,328.169c0,0,3.348,16.822-1.86,45.864
			c-5.208,29.041-4.001,50.124-4.001,50.124l34.486,89.324l-10.146,3.808c0,0-14.328-27.148-43.563-79.981
			c-2.553-4.613-2.785-11.578-4.552-20.467c-6.953-34.965-10.715-76.4-10.913-88.672H627.677z"/>
		<path clip-path="url(#SVGID_31_)" fill="#FDE7DE" d="M593.08,379.351l-22.684,53.539c0,0,2.252,18.52-9.459,63.335
			c-1.673,6.401-5.843,25.593-5.843,25.593l-9.636-0.564c0,0,5.922-72.943,7.658-97.654c1.736-24.71,12.595-95.431,12.595-95.431
			h29.601L593.08,379.351z"/>
		<path clip-path="url(#SVGID_31_)" fill="none" stroke="#FFFFFF" stroke-miterlimit="10" d="M573.059,246.964
			c0,0,2.97,4.132,7.479,6.703"/>
		<polygon clip-path="url(#SVGID_31_)" fill="#FDE7DE" points="594.185,213.828 595.335,201.974 602.351,199.95 607.492,214.898 		
			"/>
		<path clip-path="url(#SVGID_31_)" fill="#FDE7DE" d="M612.233,189.961c0,0-1.38,8.912-12.32,12.452
			c-1.368,0.444-2.564,0.743-3.611,0.931c-7.325,1.311-7.377-0.954-7.377-0.954s-2.008-4.079-3.178-10.556
			c-0.108-0.599-2.403-0.547-2.165-1.145c4.42-11.151,2.119-11.432,1.721-14.491c0,0,0.078-4.753,5.37-10.039
			c5.292-5.286,16.452,2.753,16.452,2.753l5.601,3.445l3.016,4.74l-1.71,8.408L612.233,189.961z"/>
		<path clip-path="url(#SVGID_31_)" fill="#212B54" d="M588.266,183.6c0.12,0.523,0.641,0.851,1.165,0.731
			c0.523-0.12,0.851-0.641,0.731-1.165c-0.12-0.523-0.641-0.85-1.165-0.731C588.474,182.555,588.146,183.077,588.266,183.6"/>
		<path clip-path="url(#SVGID_31_)" fill="#E5B9B6" d="M587.88,195.611c0,0,2.422,0.09,6.633-2.417c0,0-1.883,6.866-5.228,5.186
			L587.88,195.611z"/>
		<path clip-path="url(#SVGID_31_)" fill="#E5B9B6" d="M603.262,201.027c0,0-4.83,2.434-8.012,2.489c0,0,7.735,2.197,9.697,4.269
			L603.262,201.027z"/>
		<path clip-path="url(#SVGID_31_)" fill="#FCDBD1" d="M601.333,189.52c0.304,1.331-0.528,2.656-1.858,2.96
			c-1.331,0.305-2.656-0.527-2.96-1.858c-0.305-1.331,0.527-2.656,1.858-2.96S601.029,188.19,601.333,189.52"/>
		<path clip-path="url(#SVGID_31_)" fill="#212B54" d="M591.218,166.902c0,0,2.575,11.001,14.926,12.163c0,0,2.572-3.29,4.315-0.439
			c1.744,2.849,0.085,5.582,0.085,5.582s-2.158,2.69-2.847,2.803c0,0-3.054,3.62-4.374,11.633
			c-1.094,6.647,4.169,17.664,7.25,20.102c7.959,6.295,9.205,2.677,14.417,1.103c0.629-0.189-13.712,22.763-13.428,23.917
			c2.099,8.5,24.008,7.317,29.928-4.612c4.644-9.358,5.267-22.352-6.917-35.112c-5.166-5.412-3.472-11.319-1.666-18.693
			c1.432-5.847-1.786-12.949-2.259-13.977c-5.897-12.82-15.094-14.856-20.736-15.544c-7.883-0.961-15.171,0.72-21.671,5.865
			c-6.5,5.145-4.267,9.862-8.199,12.283c-6.316,3.889-6.969,12.457-4.326,14.738c2.829,2.441,9.024,7.205,4.822,15.808
			c-1.878,3.845,7.342,19.097,13.647,9.028l1.064-10.034c-4.052,0.89-5.44-0.114-5.827-0.374
			c-1.185-0.796-3.723-11.303-3.723-11.303l-2.166-1.147c0,0,3.451-5.966,3.221-8.633
			C586.524,179.392,584.901,172.798,591.218,166.902"/>
		<path clip-path="url(#SVGID_31_)" fill="#0668B2" d="M611.967,286.189c0,0-23.892,7.731-35.445,1.441
			c0.32,1.732-6.303,22.342-13.427,50.719c-4.944,19.694-5.682,48.15-5.682,48.15s8.556-1.608,23.125,5.769
			c14.569,7.377,34.803,5.801,42.372-0.258c0,0,17.617-42.892,7.346-67.162C621.19,303.426,611.967,286.189,611.967,286.189"/>
		<path clip-path="url(#SVGID_31_)" fill="#FDE7DE" d="M615.367,213.581h-24.203l-4.197,0.149
			c-0.582,3.486-2.884,14.844-3.129,15.087c-6.079,6.046,7.63,6.537,7.63,6.537c7.916-2.711,25.958-21.773,25.958-21.773"/>
		<path clip-path="url(#SVGID_31_)" fill="#E5B9B6" d="M578.6,213.828l-28.41,32.657l-23.796-12.617l-17.735-1.486l43,29.816
			c0,0,1.167,0.833,2.163,0.345c0.778-0.381,2.245-1.773,2.245-1.773l19.064-20.28L578.6,213.828z"/>
		<path clip-path="url(#SVGID_31_)" fill="#0668B2" d="M611.967,286.189c0,0-7.342-31.683,8.53-47.035l7.08-23.933
			c0,0-3.577-1.935-12.21-1.639c0,0-8.722,14.76-23.9,12.642c0,0-5.498-1.932-3.051-12.545l-9.817,0.149
			c0,0-5.974,11.722-6.279,19.666c-0.305,7.943,4.479,16.021,4.479,16.021s1.269,35.302-0.277,38.115l0.277,0.145
			C576.799,287.775,585.335,295.835,611.967,286.189"/>
		<path clip-path="url(#SVGID_31_)" fill="#0054A0" d="M620.498,239.154c0,0-2.423,1.39-9.87,11.162
			c-3.544,4.651-6.016,8.992-7.311,18.585c-1.615,11.969,5.423,26.553,8.908,36.555c2.174,6.241,1.652,14.54-11.015,26.479
			c-12.224,11.523-10.71,38.337-2.596,52.059c2.485,4.202,2.058,7.861,2.596,11.137l5.971,9.627c0,0,31.788-73.862,15.995-98.159
			c-15.995-24.608-9.982-44.364-9.299-50.657C614.56,249.648,620.498,239.154,620.498,239.154"/>
		<path clip-path="url(#SVGID_31_)" fill="#FDE7DE" d="M633.996,224.411l5.621,61.781l-9.975,52.489l-7.569,1.096l6.302-53.594
			l-7.481-48.017c0,0,3.143-15.423,6.683-22.945C627.577,215.221,633.15,216.386,633.996,224.411"/>
		<path clip-path="url(#SVGID_31_)" fill="#FDE7DE" d="M624.99,331.153c0,0-0.521,1.594-1.683,2.75
			c-1.273,1.265-4.057,5.569-4.983,7.474c-1.771,3.644,1.499,3.225,5.704-2.737c4.269-6.053,4.07-3.164,4.07-3.164l-0.106-3.806
			L624.99,331.153z"/>
		
			<line clip-path="url(#SVGID_31_)" fill="none" stroke="#FFFFFF" stroke-miterlimit="10" x1="574.346" y1="246.964" x2="580.539" y2="254.447"/>
		<path clip-path="url(#SVGID_31_)" fill="none" stroke="#212B54" stroke-miterlimit="10" d="M648.994,224.336
			c0,0,2.365,11.673-5.242,19.571"/>
		<path clip-path="url(#SVGID_31_)" fill="#515154" d="M593.723,367.511l57.686,7.868c0,0,0.349,32.2-1.326,42.773
			c0,0-0.656,4.971-7.347,5.448l-56.645-5.36c0,0,2.386-0.598,3.729-3.418C592.51,409.171,593.272,375.981,593.723,367.511"/>
		<path clip-path="url(#SVGID_31_)" fill="#3E4044" d="M593.592,370.387l-7.258-0.088c0,0-1.597,22.832-1.761,32.518
			c-0.165,9.684-1.248,15.161,1.518,15.423c0,0,4.647-0.189,5.134-10.196C591.225,408.044,592.92,398.317,593.592,370.387"/>
		
			<line clip-path="url(#SVGID_31_)" fill="none" stroke="#3E4044" stroke-miterlimit="10" x1="590.993" y1="410.063" x2="645.231" y2="414.325"/>
		<path clip-path="url(#SVGID_31_)" fill="#424245" d="M636.412,379.503c0.055-0.139-0.253-2.719,2.724-2.549
			c0,0,2.423-0.05,2.742,2.908l-0.308,8.958l-5.752-0.58L636.412,379.503z"/>
		<path clip-path="url(#SVGID_31_)" fill="#424245" d="M602.506,375.629c0.055-0.139-0.253-2.719,2.724-2.549
			c0,0,2.423-0.05,2.742,2.908l-0.308,8.959l-5.752-0.58L602.506,375.629z"/>
		
			<line clip-path="url(#SVGID_31_)" fill="none" stroke="#F4DDBF" stroke-width="2" stroke-miterlimit="10" x1="601.687" y1="377.332" x2="608.472" y2="377.944"/>
		
			<line clip-path="url(#SVGID_31_)" fill="none" stroke="#F4DDBF" stroke-width="2" stroke-miterlimit="10" x1="635.641" y1="380.707" x2="642.426" y2="381.319"/>
		<path clip-path="url(#SVGID_31_)" fill="none" stroke="#3E4044" stroke-width="4" stroke-miterlimit="10" d="M639.136,377.945
			c0,0-8.691-46.462-22.249-30.589c-10.377,12.151-11.657,27.517-11.657,27.517"/>
		<path clip-path="url(#SVGID_31_)" fill="none" stroke="#3E4044" stroke-width="4" stroke-miterlimit="10" d="M633.132,372.887
			c-3.129-12.402-10.518-35.041-20.595-23.243c-5.439,6.367-8.378,13.618-9.945,19.077"/>
		<path clip-path="url(#SVGID_31_)" fill="#FDE7DE" d="M630.137,332.156c0,0,3.724,14.244,0.119,19.774
			c-2.339,3.588-14.882,0.396-14.244-2.416l1.821-2l2.294-0.35l4.863-16.012L630.137,332.156z"/>
		<path clip-path="url(#SVGID_31_)" fill="#212B54" d="M532.261,534.943c0,0,3.628,2.263,5.955,2.396
			c1.395,0.081,2.489-0.53,4.312-1.5c3.361-1.789,8.595-6.708,11.4-10.312c1.25-1.607,1.99-2.552,1.166-3.709
			c0,0,2.375,1.084,1.667,4.375l-2.083,15.334l-1.663,0.018l0.833-9.118c0,0-8.432,6.874-9.837,7.933
			c-3.333,2.513-5.571,2.309-15.229,2.467c-8.733,0.142-11.292-0.363-7.618-2.691C523.852,538.432,532.261,534.943,532.261,534.943"
			/>
		<path clip-path="url(#SVGID_31_)" fill="#212B54" d="M640.084,533.683c0,0,5.823,3.681,9.489-0.069
			c3.849-3.937,12.021-13.146,9.344-16.325c0,0,1.849,0.221,2.323,3.554l3.048,14.545l-1.554,0.592l-2.372-8.842
			c0,0-7.211,10.433-8.222,11.871c-0.935,1.33-5.75,1.758-14.417,2.834c-8.668,1.077-10.283,0.772-7.957-1.399
			C632.092,538.273,640.084,533.683,640.084,533.683"/>
		<g opacity="0.31" clip-path="url(#SVGID_31_)">
			<g>
				<defs>
					<rect id="SVGID_32_" x="489.327" y="100.013" width="64.388" height="34.38"/>
				</defs>
				<clipPath id="SVGID_33_">
					<use xlink:href="#SVGID_32_"  overflow="visible"/>
				</clipPath>
				<path clip-path="url(#SVGID_33_)" fill="#FDE7DE" d="M506.72,125.328c0.573-0.746,1.143-1.626,1.611-2.545
					c1.276-0.624,4.222-0.924,4.222-0.924l-0.219,3.113l-0.105,1.334L506.72,125.328z"/>
				<path clip-path="url(#SVGID_33_)" fill="#FDE7DE" d="M509.934,120.621c0.216,0.137,0.439,0.271,0.681,0.4
					c0.559,0.298,1.055,0.521,1.495,0.682c0.166,0.062,0.321,0.114,0.47,0.163v0.003c-0.009-0.004-0.018-0.007-0.027-0.01
					C511.688,121.689,510.613,121.063,509.934,120.621"/>
				<path clip-path="url(#SVGID_33_)" fill="#FDE7DE" d="M509.452,120.295l0.002-0.004c0.071,0.051,0.139,0.102,0.213,0.152
					C509.585,120.388,509.511,120.336,509.452,120.295"/>
				<path clip-path="url(#SVGID_33_)" fill="#FDE7DE" d="M515.206,122.077c0.05-0.047,0.107-0.111,0.169-0.194
					c0.005-0.014,0.008-0.025,0.008-0.025s0.139-0.191,0.359-0.543c0.596-1.021,1.364-2.693,1.692-3.425
					c0.047-0.12,0.095-0.241,0.141-0.367c0.043-0.115,0.274-0.136,0.506-0.15l0.522-0.168c-0.001-0.004,0.001-0.008,0-0.012
					c-0.009-0.042-0.016-0.08-0.024-0.121c-0.195-0.563-0.955-2.871-0.688-3.867c0.305-1.14,1.517-3.875-0.77-6.92
					c0,0-1.964,4.574-7.412,4.128c0,0-0.862-1.625-1.838-0.524c-0.976,1.103-0.467,2.416-0.467,2.416s0.729,1.333,1.019,1.436
					c0,0,1.046,1.804,1.002,5.383c-0.004,0.335-0.052,0.69-0.129,1.053c0.051,0.038,0.106,0.076,0.159,0.115l0.292-0.527
					l2.887,1.418l-0.054,0.684C514.258,122.419,514.936,122.263,515.206,122.077 M512.997,116.168
					c-0.234,0.554-0.873,0.813-1.427,0.579c-0.554-0.235-0.813-0.874-0.579-1.428c0.235-0.554,0.874-0.813,1.427-0.578
					C512.973,114.975,513.231,115.614,512.997,116.168 M517.116,113.756c-0.092,0.218-0.344,0.321-0.562,0.228
					c-0.218-0.092-0.32-0.344-0.227-0.562c0.092-0.217,0.343-0.319,0.562-0.227C517.106,113.288,517.209,113.539,517.116,113.756
					 M513.667,117.438c1.634,1.412,2.691,1.56,2.691,1.56l-0.822,1.092C513.955,120.562,513.667,117.438,513.667,117.438"/>
				<path clip-path="url(#SVGID_33_)" fill="#FDE7DE" d="M509.455,120.291l0.292-0.526l2.888,1.418l-0.055,0.683
					c-0.149-0.049-0.304-0.101-0.47-0.163c-0.44-0.161-0.936-0.384-1.495-0.682c-0.242-0.128-0.465-0.263-0.681-0.4
					c-0.099-0.064-0.187-0.124-0.267-0.178C509.594,120.393,509.525,120.342,509.455,120.291"/>
				<path clip-path="url(#SVGID_33_)" fill="#212B54" d="M516.554,113.984c-0.218-0.092-0.32-0.344-0.228-0.562
					c0.093-0.217,0.344-0.319,0.562-0.227c0.218,0.093,0.32,0.344,0.228,0.561C517.024,113.974,516.772,114.077,516.554,113.984"/>
				<path clip-path="url(#SVGID_33_)" fill="#E5B9B6" d="M516.358,118.997l-0.823,1.093c-1.58,0.471-1.868-2.653-1.868-2.653
					C515.3,118.85,516.358,118.997,516.358,118.997"/>
				<path clip-path="url(#SVGID_33_)" fill="#E5B9B6" d="M509.104,120.921c0.078-0.25,0.14-0.496,0.191-0.739
					c0.029,0.021,0.082,0.06,0.157,0.113L509.104,120.921z"/>
				<path clip-path="url(#SVGID_33_)" fill="#E5B9B6" d="M509.452,120.295c0.059,0.041,0.133,0.093,0.215,0.148
					c0.08,0.054,0.167,0.114,0.266,0.178c0.68,0.443,1.754,1.069,2.62,1.238c0,0-2.946,0.3-4.222,0.924
					c0.313-0.616,0.581-1.247,0.773-1.862L509.452,120.295z"/>
				<path clip-path="url(#SVGID_33_)" fill="#FCDBD1" d="M511.57,116.746c-0.554-0.234-0.813-0.874-0.579-1.428
					c0.235-0.553,0.874-0.812,1.428-0.578c0.554,0.235,0.813,0.873,0.578,1.428C512.763,116.722,512.124,116.98,511.57,116.746"/>
				<path clip-path="url(#SVGID_33_)" fill="#212B54" d="M508.331,122.784c-0.468,0.919-1.038,1.799-1.611,2.545l-0.057-0.01
					l1.548-2.788l-0.194,0.435C508.103,122.901,508.212,122.842,508.331,122.784"/>
				<path clip-path="url(#SVGID_33_)" fill="#212B54" d="M512.58,121.869l-0.246,3.103l0.219-3.113
					C512.562,121.862,512.571,121.865,512.58,121.869"/>
				<path clip-path="url(#SVGID_33_)" fill="#212B54" d="M495.452,119.059c2.658-1.95,2.378-4.643,2.162-7.98
					c-0.171-2.648,1.772-5.481,2.057-5.891c3.545-5.108,7.692-5.283,10.192-5.147c3.495,0.19,6.527,1.481,8.951,4.213
					c2.424,2.733,1.092,4.608,2.612,5.96c2.44,2.174,2.064,5.942,0.741,6.727c-1.415,0.842-4.469,2.431-3.309,6.487
					c0.245,0.859-0.784,2.631-2.144,3.749l-1.979-0.383l-1.185-0.254l-1.301-0.23c-0.003-0.006-0.005-0.01-0.007-0.016l0.093-1.322
					l0.245-3.102c1.669,0.683,2.343,0.358,2.53,0.276c0.029-0.013,0.061-0.038,0.096-0.069c0.109-0.077,0.154-0.155,0.169-0.194
					c0.109-0.144,0.234-0.34,0.368-0.568c0.397-0.638,1.065-1.818,1.691-3.425c0.101-0.225,0.162-0.362,0.162-0.362l0.485-0.156
					c0.267-0.017,0.535-0.029,0.522-0.167l0.02-0.007c0,0-0.016-0.045-0.044-0.126c-0.195-0.563-0.955-2.871-0.688-3.867
					c0.305-1.14,1.517-3.875-0.77-6.92c0,0-1.964,4.574-7.412,4.128c0,0-0.862-1.625-1.838-0.524
					c-0.976,1.103-0.467,2.416-0.467,2.416s0.729,1.333,1.019,1.436c0,0,1.047,1.804,1.002,5.382
					c-0.004,0.336-0.052,0.691-0.129,1.054c0,0.002,0,0.003,0,0.005c-0.017-0.012-0.027-0.019-0.027-0.019l-1.058,2.368
					l-1.548,2.788l-3.613-0.642c-3.723-0.793-5.423-0.228-5.423-0.228s-2.508,0.076-3.493,3.493l-0.343,1.259l-4.464-0.792
					C489.77,125.251,491.523,121.942,495.452,119.059"/>
				<path clip-path="url(#SVGID_33_)" fill="#212B54" d="M515.206,122.076c0.051-0.047,0.107-0.11,0.169-0.193
					C515.36,121.922,515.315,122,515.206,122.076"/>
				<path clip-path="url(#SVGID_33_)" fill="#212B54" d="M515.742,121.315c0.596-1.021,1.364-2.693,1.692-3.425
					C516.807,119.498,516.14,120.677,515.742,121.315"/>
				<path clip-path="url(#SVGID_33_)" fill="#212B54" d="M518.081,117.372l0.521-0.168
					C518.615,117.343,518.348,117.354,518.081,117.372"/>
				<path clip-path="url(#SVGID_33_)" fill="#212B54" d="M508.211,122.531l1.058-2.368c0,0,0.009,0.008,0.026,0.019
					c-0.051,0.244-0.112,0.49-0.19,0.74L508.211,122.531z"/>
				<path clip-path="url(#SVGID_33_)" fill="#212B54" d="M508.331,122.784c-0.119,0.058-0.228,0.117-0.314,0.182l0.194-0.435
					l0.893-1.609C508.913,121.537,508.644,122.168,508.331,122.784"/>
				<path clip-path="url(#SVGID_33_)" fill="#FDE7DE" d="M514.721,128.148c-0.249,3.511-2.275,3.854-2.275,3.854
					c-3.922-0.145-6.456-2.594-7.893-4.622c0.06-0.031,0.118-0.06,0.179-0.093c0.479-0.258,1.116-0.867,1.766-1.671l-0.132,0.239
					l5.855,0.561l0.008-0.11l0.02,0.004C512.855,127.798,513.766,128.266,514.721,128.148"/>
				<path clip-path="url(#SVGID_33_)" fill="#FDE7DE" d="M512.229,126.306l-0.009,0.109l-5.855-0.56l0.133-0.239
					c0.074-0.092,0.148-0.191,0.222-0.288L512.229,126.306z"/>
				<path clip-path="url(#SVGID_33_)" fill="#FDE7DE" d="M512.248,126.31l1.301,0.23l1.185,0.254
					c0.026,0.501,0.015,0.944-0.014,1.354C513.766,128.266,512.854,127.798,512.248,126.31"/>
				<path clip-path="url(#SVGID_33_)" fill="#FDE7DE" d="M504.732,127.286c-0.062,0.033-0.12,0.062-0.18,0.094
					c-1.035-1.461-1.502-2.703-1.502-2.703l3.613,0.641l-0.165,0.297C505.848,126.42,505.211,127.028,504.732,127.286"/>
				<path clip-path="url(#SVGID_33_)" fill="#FDE7DE" d="M506.498,125.615l0.166-0.297l0.057,0.01
					C506.646,125.426,506.572,125.523,506.498,125.615"/>
				<path clip-path="url(#SVGID_33_)" fill="#E5B9B6" d="M523.048,134.393l-2.832-0.503c-0.256-3.063-1.233-6.275-1.233-6.275
					L523.048,134.393z"/>
				<path clip-path="url(#SVGID_33_)" fill="#0668B2" d="M503.05,124.677c0,0,0.467,1.242,1.502,2.703
					c1.437,2.027,3.972,4.477,7.894,4.622c0,0,2.026-0.344,2.275-3.854c0.213-0.027,0.428-0.082,0.642-0.161
					c-0.004-0.427-0.006-0.794-0.003-1.058l-0.625-0.135l1.979,0.383l2.269,0.438l-0.279,6.006l-3.207-0.569l-8.168-1.449
					l-7.674-1.362l-1.183-0.21c-0.171-1.945-0.437-4.073-0.845-5.583C497.627,124.448,499.327,123.884,503.05,124.677"/>
				<path clip-path="url(#SVGID_33_)" fill="#0668B2" d="M515.36,126.929c-0.003,0.264-0.001,0.631,0.003,1.058
					c-0.214,0.079-0.429,0.134-0.642,0.161c0.029-0.41,0.039-0.853,0.014-1.354L515.36,126.929z"/>
				<path clip-path="url(#SVGID_33_)" fill="#0668B2" d="M518.704,133.621l0.278-6.007c0,0,0.977,3.212,1.234,6.276L518.704,133.621
					z"/>
				<path clip-path="url(#SVGID_33_)" fill="#FDE7DE" d="M497.626,124.449l0.623,5.543l-4.459-0.791l0.343-1.259
					C495.119,124.525,497.626,124.449,497.626,124.449"/>
				<path clip-path="url(#SVGID_33_)" fill="#FDE7DE" d="M498.472,130.031l-0.222-0.039l-0.623-5.543
					C498.035,125.959,498.301,128.087,498.472,130.031"/>
			</g>
		</g>
	</g>
	<g clip-path="url(#SVGID_2_)">
		<defs>
			<rect id="SVGID_34_" width="1264.16" height="747.922"/>
		</defs>
		<clipPath id="SVGID_35_">
			<use xlink:href="#SVGID_34_"  overflow="visible"/>
		</clipPath>
		<path clip-path="url(#SVGID_35_)" fill="none" stroke="#1E274F" stroke-width="0.5" stroke-miterlimit="10" d="M588.241,179.255
			c0,0,3.471-0.334,5.573,2.804"/>
	</g>
</g>
</svg>
